<?xml version="1.0" encoding="UTF-8"?>
<svg version="1.1" xmlns="http://www.w3.org/2000/svg" width="500" height="500">
<path d="M0 0 C148.83 0 297.66 0 451 0 C451 25.41 451 50.82 451 77 C302.17 77 153.34 77 0 77 C0 51.59 0 26.18 0 0 Z M28 25 C27.12598138 28.65498696 26.7606081 31.4195345 28 35 C28.66 35 29.32 35 30 35 C30 35.66 30 36.32 30 37 C33.88369017 39.9774958 38.2474986 41.07401589 42.890625 42.3515625 C45 43 45 43 46 44 C46.04063832 45.66617115 46.042721 47.33388095 46 49 C43.22899606 50.38550197 41.0665294 50.1877467 38 50 C35 48 35 48 34 45 C31.69 45 29.38 45 27 45 C27.41434907 49.83407252 29.37793954 51.89537674 33 55 C37.87611015 56.62537005 43.23122125 56.97513558 48.140625 55.24609375 C50.72007972 53.86424301 52.70589973 52.37987952 54.5 50.0625 C55.31147 46.71518623 54.40884894 44.19150264 53.31640625 41.0078125 C51.43970513 38.14542563 49.3522361 37.58470184 46.1875 36.375 C44.63095703 35.76785156 44.63095703 35.76785156 43.04296875 35.1484375 C41.09263431 34.41236776 39.13340966 33.69920005 37.1640625 33.015625 C36.44992188 32.68046875 35.73578125 32.3453125 35 32 C34.1875 29.375 34.1875 29.375 34 27 C37.60923962 25.79692013 40.21386577 25.59434276 44 26 C45 27.66666667 46 29.33333333 47 31 C50.62599422 31.41725678 50.62599422 31.41725678 54 31 C53.18682732 26.30166894 52.7872848 24.6396689 49 21.5625 C41.43802016 17.89225037 33.85692696 19.14307304 28 25 Z M326.0625 26.5625 C322.88273119 30.78428764 322.87013729 35.8895206 323 41 C323.96992643 46.14061007 326.31677137 49.31677137 330 53 C335.54146732 56.25968666 340.72470375 56.755453 347 56 C350.90751042 54.9263476 354.53372569 53.33672407 357 50 C357 49.34 357 48.68 357 48 C357.66 48 358.32 48 359 48 C361.56708663 43.18671257 361.45283883 38.31214782 361 33 C360.14939987 30.02019799 360.14939987 30.02019799 359 28 C358.34 28 357.68 28 357 28 C356.7525 27.401875 356.505 26.80375 356.25 26.1875 C354.52005947 23.16010407 352.51922751 21.46546545 349.1640625 20.4375 C339.87102967 18.55876412 333.12831345 20.39870529 326.0625 26.5625 Z M58 21 C58 22.98 58 24.96 58 27 C61.63 27 65.26 27 69 27 C69 36.24 69 45.48 69 55 C71.31 55 73.62 55 76 55 C76 45.76 76 36.52 76 27 C79.96 27 83.92 27 88 27 C88 25.02 88 23.04 88 21 C78.1 21 68.2 21 58 21 Z M95 21 C94.85435765 25.37464796 94.76580857 29.7486696 94.6875 34.125 C94.64560547 35.3625 94.60371094 36.6 94.56054688 37.875 C94.23833128 45.27307631 94.23833128 45.27307631 97.26953125 51.7421875 C102.15193594 55.77942629 105.27058586 56.40791096 111.53125 56.2421875 C115.03409363 55.89855411 117.16232966 55.09447096 120 53 C124.84817996 46.65329169 124.47966566 40.83138254 124.25 33.0625 C124.23195313 31.90169922 124.21390625 30.74089844 124.1953125 29.54492188 C124.14841259 26.69575253 124.08279059 23.84831469 124 21 C121.69 21 119.38 21 117 21 C116.98018066 21.67579102 116.96036133 22.35158203 116.93994141 23.04785156 C116.84456762 26.11562044 116.73493835 29.18271998 116.625 32.25 C116.57859375 33.84521484 116.57859375 33.84521484 116.53125 35.47265625 C116.49257812 36.49746094 116.45390625 37.52226562 116.4140625 38.578125 C116.3826416 39.52075195 116.3512207 40.46337891 116.31884766 41.43457031 C115.98763911 44.09945497 115.49836159 45.77687019 114 48 C110.57887611 48.96683936 107.22862441 49.72962022 104 48 C101.54562052 42.54482808 101.56607167 37.00045389 101.375 31.125 C101.33632812 30.15046875 101.29765625 29.1759375 101.2578125 28.171875 C101.16406967 25.7814328 101.0783617 23.39098756 101 21 C99.02 21 97.04 21 95 21 Z M133 21 C133 32.22 133 43.44 133 55 C137.95 55.1546875 137.95 55.1546875 143 55.3125 C144.53527344 55.38078003 144.53527344 55.38078003 146.1015625 55.45043945 C152.67698174 55.5490453 156.93139745 54.25239733 162 50 C165.49703414 45.9389281 166 41.22348303 166 36 C164.80001074 30.43641344 162.33024575 25.57568998 157.5390625 22.3359375 C152.66085262 20.49449404 148.28406676 20.67723908 143.125 20.8125 C139.78375 20.874375 136.4425 20.93625 133 21 Z M168 21 C169.39033872 24.67209079 171.04066829 28.06350082 172.9375 31.5 C173.69353516 32.87671875 173.69353516 32.87671875 174.46484375 34.28125 C175.94669041 36.9947476 175.94669041 36.9947476 177.6484375 39.41796875 C179.33277822 42.63574104 179.50503009 45.19959579 179.6875 48.8125 C179.78611328 50.55466797 179.78611328 50.55466797 179.88671875 52.33203125 C179.92410156 53.21246094 179.96148437 54.09289062 180 55 C182.31 55 184.62 55 187 55 C186.979375 54.22398437 186.95875 53.44796875 186.9375 52.6484375 C187.10570585 43.8386561 189.39330282 38.53527562 193.9921875 31.2890625 C196.05345247 27.91243778 197.52657241 24.66040188 199 21 C195.75643424 20.24586647 195.75643424 20.24586647 192 21 C188.19112544 25.02382233 185.94288498 29.86458102 184 35 C182.85018626 33.23174858 181.70528078 31.46030479 180.5625 29.6875 C179.92441406 28.70136719 179.28632813 27.71523438 178.62890625 26.69921875 C177 24 177 24 176 21 C173.36 21 170.72 21 168 21 Z M226 21 C223.14023971 27.18283369 220.64778026 33.46531164 218.23828125 39.8359375 C216.85963679 43.35865679 215.32841344 46.782375 213.69921875 50.1953125 C212.8193614 52.14366124 212.8193614 52.14366124 213 55 C215.31 55 217.62 55 220 55 C220.33 53.35 220.66 51.7 221 50 C226.61 50 232.22 50 238 50 C238.33 51.65 238.66 53.3 239 55 C241.64 55 244.28 55 247 55 C245.57120742 50.56464863 243.93781009 46.25554732 242.1875 41.9375 C239.38210123 34.98661582 236.6694646 28.00439163 234 21 C231.36 21 228.72 21 226 21 Z M254 21 C254 32.22 254 43.44 254 55 C257.526875 55.0825 261.05375 55.165 264.6875 55.25 C266.342052 55.30462402 266.342052 55.30462402 268.0300293 55.36035156 C272.43193054 55.41027709 275.24670733 55.42296681 279.14453125 53.234375 C282.10454161 49.66989937 282 47.61300207 282 43 C280.86431257 40.47947335 280.86431257 40.47947335 279 39 C278.34 39 277.68 39 277 39 C277 38.01 277 37.02 277 36 C277.66 36 278.32 36 279 36 C281.5099972 32.23500419 281.61476744 30.45706394 281 26 C278.308705 22.90188133 276.6255552 21.26308073 272.53808594 20.6015625 C269.71318783 20.50817744 266.94944727 20.56408061 264.125 20.6875 C259.113125 20.8421875 259.113125 20.8421875 254 21 Z M289 21 C289 32.22 289 43.44 289 55 C291.64 55 294.28 55 297 55 C297 51.37 297 47.74 297 44 C299.625 43.875 299.625 43.875 303 45 C304.453125 47.29296875 304.453125 47.29296875 305.875 50.0625 C307.69947144 53.80735819 307.69947144 53.80735819 311.15625 55.66015625 C313.62354316 55.67812496 313.62354316 55.67812496 317 55 C316.65066406 54.38511719 316.30132812 53.77023437 315.94140625 53.13671875 C315.48636719 52.32847656 315.03132813 51.52023437 314.5625 50.6875 C314.11003906 49.88699219 313.65757812 49.08648437 313.19140625 48.26171875 C312 46 312 46 311 43 C311.78375 42.484375 312.5675 41.96875 313.375 41.4375 C316.70101756 38.34905513 317.40168867 36.48733495 318 32 C317.2741949 27.92950543 316.18291994 25.04752549 313.0546875 22.27734375 C308.46215136 20.35693542 304.10490227 20.68469203 299.1875 20.8125 C295.825625 20.874375 292.46375 20.93625 289 21 Z M377 21 C376.55269531 22.09957031 376.10539062 23.19914062 375.64453125 24.33203125 C375.03433211 25.82571617 374.42361983 27.31919153 373.8125 28.8125 C373.33756104 29.97422729 373.33756104 29.97422729 372.85302734 31.15942383 C371.04438029 35.55492054 369.15541184 39.88850485 367.125 44.1875 C365.45029754 47.78948299 364.32490724 50.99281068 364 55 C366.31 55 368.62 55 371 55 C371.66 53.68 372.32 52.36 373 51 C378.28 51 383.56 51 389 51 C389.66 52.32 390.32 53.64 391 55 C393.31 55 395.62 55 398 55 C395.6065288 47.50151713 392.76336589 40.2325793 389.8125 32.9375 C389.34908203 31.78572266 388.88566406 30.63394531 388.40820312 29.44726562 C387.2745028 26.63054626 386.13838499 23.81482853 385 21 C382.36 21 379.72 21 377 21 Z M405 21 C405 32.22 405 43.44 405 55 C410.011875 55.0928125 410.011875 55.0928125 415.125 55.1875 C416.16672363 55.21481201 417.20844727 55.24212402 418.28173828 55.27026367 C423.63661858 55.31815787 427.34829621 54.98366859 432 52 C432 51.34 432 50.68 432 50 C432.66 50 433.32 50 434 50 C437.23403836 43.80142647 438.4386189 37.6465737 436.3203125 30.8046875 C435.62451252 29.16790089 434.8226926 27.57682748 434 26 C433.34 26 432.68 26 432 26 C432 25.34 432 24.68 432 24 C426.41583861 20.41823992 421.5099783 20.64509802 415.125 20.8125 C411.78375 20.874375 408.4425 20.93625 405 21 Z " fill="#0D1840" transform="translate(10,351)"/>
<path d="M0 0 C21.83655025 -0.50635479 41.93106695 6.82373861 58.3203125 21.125 C58.3203125 21.785 58.3203125 22.445 58.3203125 23.125 C58.9803125 23.125 59.6403125 23.125 60.3203125 23.125 C60.3203125 23.785 60.3203125 24.445 60.3203125 25.125 C60.9803125 25.125 61.6403125 25.125 62.3203125 25.125 C62.3203125 25.785 62.3203125 26.445 62.3203125 27.125 C62.9803125 27.125 63.6403125 27.125 64.3203125 27.125 C64.6503125 28.445 64.9803125 29.765 65.3203125 31.125 C65.9803125 31.125 66.6403125 31.125 67.3203125 31.125 C78.15584579 45.95508972 83.57659851 62.31967542 83.3828125 80.625 C83.37830078 81.44742188 83.37378906 82.26984375 83.36914062 83.1171875 C83.35749739 85.11982396 83.33956806 87.12242227 83.3203125 89.125 C80.21719612 89.79661995 77.11266082 90.46143675 74.0078125 91.125 C73.12673828 91.31578125 72.24566406 91.5065625 71.33789062 91.703125 C70.49033203 91.88359375 69.64277344 92.0640625 68.76953125 92.25 C67.98924561 92.41757813 67.20895996 92.58515625 66.4050293 92.7578125 C64.3203125 93.125 64.3203125 93.125 61.3203125 93.125 C61.97866224 88.77989173 63.38648753 85.06702783 65.3203125 81.125 C68.3203125 79.125 68.3203125 79.125 71.3203125 79.125 C70.9903125 78.135 70.6603125 77.145 70.3203125 76.125 C69.1446875 76.2178125 69.1446875 76.2178125 67.9453125 76.3125 C67.0790625 76.250625 66.2128125 76.18875 65.3203125 76.125 C62.84688984 72.41486601 62.93527764 70.51439738 63.3203125 66.125 C64.8203125 63.6875 64.8203125 63.6875 66.3203125 62.125 C65.3303125 61.795 64.3403125 61.465 63.3203125 61.125 C62.918125 60.25875 62.918125 60.25875 62.5078125 59.375 C61.35389686 56.81361219 61.35389686 56.81361219 58.2578125 54.75 C55.3203125 52.125 55.3203125 52.125 54.3828125 48.9375 C54.3203125 46.125 54.3203125 46.125 55.3203125 44.125 C55.9803125 44.125 56.6403125 44.125 57.3203125 44.125 C56.98497973 41.10700506 56.45465652 39.31618187 54.6953125 36.8125 C51.48746678 34.5332412 49.16311039 34.82940016 45.3203125 35.125 C45.3203125 35.785 45.3203125 36.445 45.3203125 37.125 C44.6603125 37.125 44.0003125 37.125 43.3203125 37.125 C42.6603125 38.445 42.0003125 39.765 41.3203125 41.125 C37.97304937 40.84606141 36.60725707 40.41727811 34.21875 37.984375 C32.03722935 34.69862784 31.6196489 32.4582693 31.1953125 28.5625 C30.69332046 23.01728732 30.69332046 23.01728732 28.3203125 18.125 C20.51340192 13.55096921 11.26750423 13.76276086 2.5078125 13.75 C0.89797485 13.74758301 0.89797485 13.74758301 -0.74438477 13.74511719 C-6.71576887 13.82862656 -11.95865745 14.39971953 -17.6796875 16.125 C-16.71929565 16.18445801 -16.71929565 16.18445801 -15.73950195 16.24511719 C-12.82215408 16.43634941 -9.90753071 16.65538846 -6.9921875 16.875 C-5.48108398 16.9678125 -5.48108398 16.9678125 -3.93945312 17.0625 C1.62593756 17.50332302 5.31627746 17.83309316 9.3203125 22.125 C9.2578125 23.875 9.2578125 23.875 8.3203125 26.125 C5.38906602 28.00099775 2.43716482 29.56217678 -0.6640625 31.125 C-4.40796766 32.99269788 -4.40796766 32.99269788 -6.6171875 36.375 C-6.6378125 36.9525 -6.6584375 37.53 -6.6796875 38.125 C-5.596875 38.558125 -5.596875 38.558125 -4.4921875 39 C-2.65305092 39.73565463 -0.8193685 40.48513354 1.0078125 41.25 C3.21999041 42.24296403 3.21999041 42.24296403 5.3203125 42.125 C5.2378125 41.238125 5.1553125 40.35125 5.0703125 39.4375 C5.37239413 35.43491841 6.61758717 33.99664566 9.3203125 31.125 C12.69493965 31.67223683 14.4026625 32.1799 17.3203125 34.125 C17.6503125 35.115 17.9803125 36.105 18.3203125 37.125 C19.9703125 37.455 21.6203125 37.785 23.3203125 38.125 C24.3103125 41.095 25.3003125 44.065 26.3203125 47.125 C26.9803125 47.125 27.6403125 47.125 28.3203125 47.125 C28.3203125 48.775 28.3203125 50.425 28.3203125 52.125 C25.3503125 53.115 22.3803125 54.105 19.3203125 55.125 C19.3203125 57.105 19.3203125 59.085 19.3203125 61.125 C18.69382812 61.22296875 18.06734375 61.3209375 17.421875 61.421875 C16.60460937 61.57140625 15.78734375 61.7209375 14.9453125 61.875 C14.13320312 62.01421875 13.32109375 62.1534375 12.484375 62.296875 C10.14322158 62.94249261 10.14322158 62.94249261 9.03125 65.203125 C8.79664063 65.83734375 8.56203125 66.4715625 8.3203125 67.125 C7.6603125 67.125 7.0003125 67.125 6.3203125 67.125 C6.3203125 67.785 6.3203125 68.445 6.3203125 69.125 C5.3303125 69.785 4.3403125 70.445 3.3203125 71.125 C2.29419301 72.77571396 1.29723107 74.44470006 0.3203125 76.125 C-0.3809375 76.95 -1.0821875 77.775 -1.8046875 78.625 C-3.76346575 81.23670434 -4.31354823 82.92128135 -4.6796875 86.125 C-6.6171875 85.8125 -6.6171875 85.8125 -8.6796875 85.125 C-9.0096875 84.135 -9.3396875 83.145 -9.6796875 82.125 C-15.6196875 82.62 -15.6196875 82.62 -21.6796875 83.125 C-22.3396875 86.095 -22.9996875 89.065 -23.6796875 92.125 C-19.64975968 91.57187265 -15.65945826 90.9691938 -11.6796875 90.125 C-12.0096875 92.105 -12.3396875 94.085 -12.6796875 96.125 C-12.0609375 96.16625 -11.4421875 96.2075 -10.8046875 96.25 C-10.1034375 96.53875 -9.4021875 96.8275 -8.6796875 97.125 C-7.94666136 99.10164289 -7.27512717 101.10265086 -6.6796875 103.125 C-5.78507812 103.02960938 -4.89046875 102.93421875 -3.96875 102.8359375 C8.52619718 101.69034533 16.99503855 102.67943548 27.3203125 110.125 C29.10546875 111.69140625 29.10546875 111.69140625 30.3203125 113.125 C30.3203125 113.785 30.3203125 114.445 30.3203125 115.125 C31.01898438 115.23457031 31.71765625 115.34414062 32.4375 115.45703125 C33.80261719 115.69486328 33.80261719 115.69486328 35.1953125 115.9375 C36.55269531 116.16373047 36.55269531 116.16373047 37.9375 116.39453125 C40.3203125 117.125 40.3203125 117.125 42.3203125 120.125 C41.97982633 123.90749187 40.65156015 126.68413866 38.7578125 129.9375 C38.30277344 130.72769531 37.84773438 131.51789063 37.37890625 132.33203125 C37.02957031 132.92371094 36.68023437 133.51539063 36.3203125 134.125 C35.6603125 134.125 35.0003125 134.125 34.3203125 134.125 C34.3203125 134.785 34.3203125 135.445 34.3203125 136.125 C33.6603125 136.125 33.0003125 136.125 32.3203125 136.125 C32.3203125 136.785 32.3203125 137.445 32.3203125 138.125 C30.640625 139.52734375 30.640625 139.52734375 28.4453125 141.0625 C25.64535215 143.02447938 24.25968488 144.21594143 22.3203125 147.125 C23.14015625 146.77566406 23.96 146.42632812 24.8046875 146.06640625 C25.88234375 145.61136719 26.96 145.15632812 28.0703125 144.6875 C29.67132813 144.00880859 29.67132813 144.00880859 31.3046875 143.31640625 C33.6616966 142.38520447 35.85024085 141.6465928 38.3203125 141.125 C38.3203125 140.465 38.3203125 139.805 38.3203125 139.125 C40.3003125 138.465 42.2803125 137.805 44.3203125 137.125 C44.3203125 136.465 44.3203125 135.805 44.3203125 135.125 C46.21559074 132.37470902 48.3502715 130.6356645 51.3203125 129.125 C56.03062752 128.61133424 60.60169415 128.77159447 65.3203125 129.125 C63.69691445 130.83384005 62.02712197 132.49946717 60.3203125 134.125 C59.6603125 134.125 59.0003125 134.125 58.3203125 134.125 C58.0315625 135.011875 57.7428125 135.89875 57.4453125 136.8125 C57.0740625 137.905625 56.7028125 138.99875 56.3203125 140.125 C56.0521875 141.0325 55.7840625 141.94 55.5078125 142.875 C54.3203125 145.125 54.3203125 145.125 51.6953125 146.4375 C50.9115625 146.664375 50.1278125 146.89125 49.3203125 147.125 C49.3203125 147.785 49.3203125 148.445 49.3203125 149.125 C39.82966681 154.60139499 31.04583117 158.59039812 20.3203125 161.125 C19.4228833 161.38543091 19.4228833 161.38543091 18.50732422 161.65112305 C-3.47576836 166.41437184 -25.79239673 160.50709099 -44.4296875 148.875 C-45.1721875 148.2975 -45.9146875 147.72 -46.6796875 147.125 C-46.6796875 146.465 -46.6796875 145.805 -46.6796875 145.125 C-47.9996875 144.795 -49.3196875 144.465 -50.6796875 144.125 C-50.6796875 143.465 -50.6796875 142.805 -50.6796875 142.125 C-51.3396875 142.125 -51.9996875 142.125 -52.6796875 142.125 C-52.6796875 141.465 -52.6796875 140.805 -52.6796875 140.125 C-53.3396875 140.125 -53.9996875 140.125 -54.6796875 140.125 C-54.6796875 139.465 -54.6796875 138.805 -54.6796875 138.125 C-55.3396875 138.125 -55.9996875 138.125 -56.6796875 138.125 C-56.6796875 137.465 -56.6796875 136.805 -56.6796875 136.125 C-57.3396875 136.125 -57.9996875 136.125 -58.6796875 136.125 C-59.96875 134.6640625 -59.96875 134.6640625 -61.3046875 132.75 C-61.75070313 132.12351563 -62.19671875 131.49703125 -62.65625 130.8515625 C-63.6796875 129.125 -63.6796875 129.125 -63.6796875 127.125 C-64.3396875 127.125 -64.9996875 127.125 -65.6796875 127.125 C-67.02295281 124.54641033 -68.35443415 121.96282579 -69.6796875 119.375 C-70.06125 118.64539063 -70.4428125 117.91578125 -70.8359375 117.1640625 C-71.196875 116.45507812 -71.5578125 115.74609375 -71.9296875 115.015625 C-72.26484375 114.36625977 -72.6 113.71689453 -72.9453125 113.04785156 C-73.6796875 111.125 -73.6796875 111.125 -73.6796875 107.125 C-69.14398501 106.83563026 -65.06864091 106.86877937 -60.6796875 108.125 C-57.00724944 112.21506188 -55.39492118 116.97929896 -53.6796875 122.125 C-53.0196875 122.125 -52.3596875 122.125 -51.6796875 122.125 C-50.5234375 123.59375 -50.5234375 123.59375 -49.1796875 125.625 C-40.12958005 138.06614528 -23.75381877 146.61264479 -8.6796875 149.125 C-4.68469336 149.55409196 -0.68938866 149.87105226 3.3203125 150.125 C4.24439399 142.13086298 4.24439399 142.13086298 1.90234375 134.69140625 C0.11621562 132.7377096 -1.73930054 130.92441868 -3.6796875 129.125 C-6.64725025 125.48973563 -7.71476366 124.15974678 -7.5546875 119.4375 C-6.6796875 116.125 -6.6796875 116.125 -4.6796875 113.125 C-5.0096875 112.135 -5.3396875 111.145 -5.6796875 110.125 C-6.515 109.939375 -6.515 109.939375 -7.3671875 109.75 C-10.96281905 108.77820769 -12.96475397 106.65482443 -15.6796875 104.125 C-15.6796875 103.465 -15.6796875 102.805 -15.6796875 102.125 C-20.66252466 100.98448394 -25.62436882 99.90274134 -30.6796875 99.125 C-30.6796875 98.465 -30.6796875 97.805 -30.6796875 97.125 C-31.58267578 96.80208984 -31.58267578 96.80208984 -32.50390625 96.47265625 C-35.45527954 94.64460637 -36.0946023 92.71612886 -37.4921875 89.5625 C-39.90855404 84.44004951 -42.65250008 80.21737159 -46.26171875 75.8671875 C-48.74981806 72.81018394 -48.84067353 70.75664451 -48.8671875 66.875 C-48.88136719 65.94171875 -48.89554688 65.0084375 -48.91015625 64.046875 C-48.6796875 61.125 -48.6796875 61.125 -47.67578125 58.4140625 C-46.28673436 53.82748414 -46.46639928 49.51077251 -46.5546875 44.75 C-46.56371094 43.82316406 -46.57273438 42.89632812 -46.58203125 41.94140625 C-46.60545813 39.66899923 -46.63826002 37.3971382 -46.6796875 35.125 C-49.98398258 38.30395975 -52.82317471 41.47862972 -55.4296875 45.25 C-56.02265625 46.09820312 -56.615625 46.94640625 -57.2265625 47.8203125 C-58.81718904 50.1400384 -58.81718904 50.1400384 -59.6796875 53.125 C-63.6396875 52.135 -67.5996875 51.145 -71.6796875 50.125 C-69.70877846 40.27045478 -63.86223187 32.91733823 -57.1796875 25.6875 C-56.64633789 25.1087915 -56.11298828 24.53008301 -55.56347656 23.93383789 C-51.91097992 20.10494858 -48.12235673 17.00950005 -43.6796875 14.125 C-43.0196875 14.125 -42.3596875 14.125 -41.6796875 14.125 C-41.6796875 13.465 -41.6796875 12.805 -41.6796875 12.125 C-27.73080813 5.24050033 -15.68173114 0.73150932 0 0 Z " fill="#0C163E" transform="translate(240.6796875,22.875)"/>
<path d="M0 0 C1.58206057 0.00667536 3.16410534 0.0186375 4.74609375 0.03515625 C5.55240234 0.03966797 6.35871094 0.04417969 7.18945312 0.04882812 C9.18753131 0.06065107 11.18557158 0.07858711 13.18359375 0.09765625 C16.69389883 7.35228675 19.75508859 14.52167716 22.19140625 22.203125 C23.49641615 26.01026017 25.17613233 29.58599706 26.8828125 33.2265625 C29.92151277 39.93360363 32.94632258 46.80851522 34.18359375 54.09765625 C36.5942622 51.752141 38.88553954 49.50610091 40.87109375 46.78515625 C41.30421875 46.22828125 41.73734375 45.67140625 42.18359375 45.09765625 C42.84359375 45.09765625 43.50359375 45.09765625 44.18359375 45.09765625 C44.84359375 43.44765625 45.50359375 41.79765625 46.18359375 40.09765625 C46.84359375 40.09765625 47.50359375 40.09765625 48.18359375 40.09765625 C48.43238281 39.55109375 48.68117188 39.00453125 48.9375 38.44140625 C50.43505778 35.62468315 52.22761401 33.1646083 54.12109375 30.59765625 C54.81074219 29.65921875 55.50039063 28.72078125 56.2109375 27.75390625 C56.86191406 26.87734375 57.51289063 26.00078125 58.18359375 25.09765625 C58.98990234 23.9375 58.98990234 23.9375 59.8125 22.75390625 C60.26496094 22.20734375 60.71742188 21.66078125 61.18359375 21.09765625 C61.84359375 21.09765625 62.50359375 21.09765625 63.18359375 21.09765625 C63.45171875 20.35515625 63.71984375 19.61265625 63.99609375 18.84765625 C65.13636126 16.20703676 66.27739681 14.24212781 68.18359375 12.09765625 C68.84359375 12.09765625 69.50359375 12.09765625 70.18359375 12.09765625 C70.38984375 11.41703125 70.59609375 10.73640625 70.80859375 10.03515625 C71.26234375 9.06578125 71.71609375 8.09640625 72.18359375 7.09765625 C72.45945312 6.47375 72.7353125 5.84984375 73.01953125 5.20703125 C74.55406353 2.67350815 75.56787494 1.56744111 78.18359375 0.09765625 C84.12585287 -0.80320274 90.21426751 -0.29654454 96.18359375 0.09765625 C97.86582523 3.46211922 96.32184335 7.0473322 95.55859375 10.59765625 C95.17849617 12.42423166 94.7996517 14.25106816 94.421875 16.078125 C94.11757568 17.54258057 94.11757568 17.54258057 93.80712891 19.03662109 C92.73147187 24.31719585 91.74668496 29.61495028 90.74609375 34.91015625 C88.97058317 44.23483928 87.04821173 53.51643281 84.99951172 62.78466797 C82.92327417 72.19639338 81.04720798 81.64153958 79.18359375 91.09765625 C72.58359375 91.09765625 65.98359375 91.09765625 59.18359375 91.09765625 C59.18359375 83.22917552 59.18359375 83.22917552 59.91796875 79.8125 C60.07813477 79.04454102 60.23830078 78.27658203 60.40332031 77.48535156 C60.66580566 76.27250488 60.66580566 76.27250488 60.93359375 75.03515625 C61.29998161 73.27902135 61.66449135 71.5224938 62.02734375 69.765625 C62.21683594 68.84958496 62.40632813 67.93354492 62.6015625 66.98974609 C63.6147808 61.95510516 64.52416698 56.90190692 65.43359375 51.84765625 C65.6960791 50.39153931 65.6960791 50.39153931 65.96386719 48.90600586 C66.37193093 46.63681842 66.77860883 44.36739486 67.18359375 42.09765625 C66.70148438 42.81953125 66.219375 43.54140625 65.72265625 44.28515625 C64.77519531 45.67734375 64.77519531 45.67734375 63.80859375 47.09765625 C63.18210937 48.02578125 62.555625 48.95390625 61.91015625 49.91015625 C61.34039062 50.63203125 60.770625 51.35390625 60.18359375 52.09765625 C59.52359375 52.09765625 58.86359375 52.09765625 58.18359375 52.09765625 C57.76787109 52.979375 57.76787109 52.979375 57.34375 53.87890625 C56.24556989 55.97912949 55.06397676 57.72314156 53.62109375 59.59765625 C51.67037126 62.14082039 49.7480079 64.69503113 47.859375 67.28515625 C47.25814819 68.1059668 47.25814819 68.1059668 46.64477539 68.94335938 C45.47239361 70.54466132 44.30447805 72.14923021 43.13671875 73.75390625 C42.16992188 74.9140625 42.16992188 74.9140625 41.18359375 76.09765625 C40.52359375 76.09765625 39.86359375 76.09765625 39.18359375 76.09765625 C38.87421875 76.90203125 38.56484375 77.70640625 38.24609375 78.53515625 C37.18359375 81.09765625 37.18359375 81.09765625 36.18359375 82.09765625 C34.49750409 82.16971136 32.80858716 82.18151693 31.12109375 82.16015625 C29.74244141 82.14662109 29.74244141 82.14662109 28.3359375 82.1328125 C27.27052734 82.11541016 27.27052734 82.11541016 26.18359375 82.09765625 C25.92707031 81.4634375 25.67054688 80.82921875 25.40625 80.17578125 C22.24499507 72.46955712 18.86198161 64.87867668 15.39477539 57.30566406 C13.11638103 52.29705229 11.0555837 47.27245648 9.18359375 42.09765625 C6.08661913 52.58238596 3.92235842 63.16175305 1.93481445 73.90771484 C1.735896 74.97973145 1.53697754 76.05174805 1.33203125 77.15625 C1.15849121 78.10814209 0.98495117 79.06003418 0.80615234 80.04077148 C0.05023733 83.75246242 -0.89770969 87.42287003 -1.81640625 91.09765625 C-8.41640625 91.09765625 -15.01640625 91.09765625 -21.81640625 91.09765625 C-21.21762771 83.20939978 -20.10996929 75.60263023 -18.56640625 67.84765625 C-18.34460693 66.71360352 -18.12280762 65.57955078 -17.89428711 64.41113281 C-16.29072958 56.28855598 -14.56717186 48.19580667 -12.77148438 40.11376953 C-11.51625056 34.43078697 -10.33169796 28.73678551 -9.203125 23.02734375 C-9.06681168 22.33846069 -8.93049835 21.64957764 -8.79005432 20.93981934 C-8.11513746 17.52190277 -7.44609041 14.10293365 -6.78344727 10.68261719 C-6.54166748 9.4505957 -6.2998877 8.21857422 -6.05078125 6.94921875 C-5.72932129 5.29140381 -5.72932129 5.29140381 -5.40136719 3.60009766 C-4.47073562 -0.38111002 -4.38531945 0.11221391 0 0 Z " fill="#0D173F" transform="translate(227.81640625,237.90234375)"/>
<path d="M0 0 C1.90700163 1.83974224 2.86889129 3.38833178 3.8828125 5.81640625 C4.5428125 5.81640625 5.2028125 5.81640625 5.8828125 5.81640625 C6.51590441 6.99961201 7.13877968 8.18828473 7.7578125 9.37890625 C8.10585937 10.04019531 8.45390625 10.70148438 8.8125 11.3828125 C13.88788235 22.9228242 13.42722872 37.04654813 9.20703125 48.7890625 C3.3319792 62.2202287 -5.24887497 73.0184065 -18.88671875 79.0390625 C-32.63597236 84.28672564 -51.2643345 85.46533622 -65.1171875 79.81640625 C-72.07015161 76.26654199 -77.57992016 72.19310629 -82.1171875 65.81640625 C-82.1171875 64.82640625 -82.1171875 63.83640625 -82.1171875 62.81640625 C-82.7771875 62.81640625 -83.4371875 62.81640625 -84.1171875 62.81640625 C-90.2918447 49.07450959 -88.25515046 34.12895857 -83.3671875 20.37890625 C-77.48403508 7.12516288 -66.17763527 -1.64920697 -53.1171875 -7.18359375 C-35.67362543 -13.50277095 -14.6826875 -11.43407894 0 0 Z M-50.1171875 12.81640625 C-50.73980469 13.15542969 -51.36242187 13.49445313 -52.00390625 13.84375 C-57.48356111 17.18384331 -60.27712409 22.18903602 -63.1171875 27.81640625 C-63.49488281 28.56019531 -63.87257812 29.30398438 -64.26171875 30.0703125 C-65.47936209 33.97900323 -65.48554018 37.68242485 -65.4921875 41.75390625 C-65.51667969 42.53958984 -65.54117188 43.32527344 -65.56640625 44.13476562 C-65.5934412 49.5192256 -64.7091146 52.57140149 -61.1171875 56.81640625 C-59.11474372 58.69245685 -59.11474372 58.69245685 -56.9921875 60.12890625 C-56.30898437 60.62003906 -55.62578125 61.11117187 -54.921875 61.6171875 C-48.99610558 65.5548741 -40.0207823 64.53334179 -33.1171875 63.81640625 C-26.40801818 61.91820225 -21.56722903 58.08619227 -17.1171875 52.81640625 C-17.1171875 52.15640625 -17.1171875 51.49640625 -17.1171875 50.81640625 C-16.4571875 50.81640625 -15.7971875 50.81640625 -15.1171875 50.81640625 C-14.46808596 49.23440994 -13.82304056 47.65074901 -13.1796875 46.06640625 C-12.64021484 44.74382812 -12.64021484 44.74382812 -12.08984375 43.39453125 C-9.49090927 36.50578926 -8.77806253 29.05312058 -11.0234375 21.94921875 C-13.92191732 15.68775914 -17.11257688 12.73469875 -23.3515625 9.74609375 C-32.10614828 6.80316802 -42.33597667 8.01455924 -50.1171875 12.81640625 Z " fill="#0B163E" transform="translate(192.1171875,247.18359375)"/>
<path d="M0 0 C7.26 0 14.52 0 22 0 C21.07432883 5.78544484 20.09841613 11.54660886 18.9765625 17.296875 C18.79577148 18.22540283 18.61498047 19.15393066 18.42871094 20.1105957 C18.06362215 21.97451241 17.69457064 23.83765792 17.32128906 25.69995117 C17.15081055 26.57111572 16.98033203 27.44228027 16.8046875 28.33984375 C16.64983887 29.11706787 16.49499023 29.89429199 16.33544922 30.69506836 C15.97677273 33.15959874 15.94337013 35.51295927 16 38 C16.66 38 17.32 38 18 38 C18 37.34 18 36.68 18 36 C18.66 36 19.32 36 20 36 C20 35.34 20 34.68 20 34 C21.4609375 32.4921875 21.4609375 32.4921875 23.375 30.875 C24.00148437 30.33617187 24.62796875 29.79734375 25.2734375 29.2421875 C27 28 27 28 29 28 C29 27.34 29 26.68 29 26 C32.46153846 23 32.46153846 23 35 23 C35 22.34 35 21.68 35 21 C35.66 21 36.32 21 37 21 C37 20.34 37 19.68 37 19 C38.6376272 17.54597658 40.33734196 16.16151322 42.0625 14.8125 C46.12308079 11.57134233 49.89917974 8.28322145 53.46484375 4.5078125 C57.91791344 0.13405957 57.91791344 0.13405957 61.74902344 -0.34057617 C63.28864746 -0.3170105 63.28864746 -0.3170105 64.859375 -0.29296875 C65.97441406 -0.28330078 67.08945313 -0.27363281 68.23828125 -0.26367188 C69.39714844 -0.23853516 70.55601563 -0.21339844 71.75 -0.1875 C72.92433594 -0.17396484 74.09867187 -0.16042969 75.30859375 -0.14648438 C78.20619298 -0.1111478 81.10286427 -0.06180979 84 0 C84 0.99 84 1.98 84 3 C83.34 3 82.68 3 82 3 C82 3.66 82 4.32 82 5 C80.30725716 6.56432787 78.54430148 8.05328572 76.75 9.5 C75.77546875 10.2940625 74.8009375 11.088125 73.796875 11.90625 C71.55105238 13.58748034 69.5534197 14.88135899 67 16 C67 16.66 67 17.32 67 18 C66.34 18 65.68 18 65 18 C65 18.66 65 19.32 65 20 C63.46804728 21.37212301 61.87078919 22.6715446 60.25 23.9375 C55.85812468 27.44758688 51.63195558 31.06270312 47.5 34.875 C46.99629883 35.33898193 46.49259766 35.80296387 45.97363281 36.28100586 C43.60278061 38.47729463 41.27711866 40.70713707 39 43 C39.79557292 44.22395833 40.59114583 45.44791667 41.38671875 46.671875 C42.16704468 47.87239502 42.16704468 47.87239502 42.96313477 49.09716797 C44.12373364 50.88267942 45.28437903 52.66816063 46.44506836 54.45361328 C49.50352009 59.15848003 52.56122423 63.86382897 55.6171875 68.5703125 C56.19509033 69.46008789 56.77299316 70.34986328 57.3684082 71.26660156 C58.47400238 72.96888838 59.57932109 74.67135416 60.68432617 76.37402344 C61.1919751 77.15551758 61.69962402 77.93701172 62.22265625 78.7421875 C62.69719238 79.47405273 63.17172852 80.20591797 63.66064453 80.95996094 C64.8730407 82.80662196 66.1176617 84.62643477 67.37109375 86.4453125 C69 89 69 89 69 91 C48.05776766 94.00042424 48.05776766 94.00042424 41.78320312 89.36083984 C37.99713463 84.94273223 35.58348825 79.80002726 33.20117188 74.52783203 C31.39323275 70.72307559 29.09870646 67.29955358 26.75 63.8125 C26.01315217 62.6747748 25.27849527 61.53562508 24.546875 60.39453125 C23.78117187 59.20923828 23.78117187 59.20923828 23 58 C18.56986765 59.92174691 15.51545046 63.06032698 12.0234375 66.3203125 C10 68 10 68 8 68 C7.96261719 68.57105469 7.92523438 69.14210938 7.88671875 69.73046875 C7.29518678 77.02602967 5.73905576 83.89255472 4 91 C-2.93 91 -9.86 91 -17 91 C-18.0695946 87.79121621 -17.95918086 86.96468337 -17.1796875 83.80859375 C-16.97690186 82.96119629 -16.77411621 82.11379883 -16.56518555 81.24072266 C-16.33742432 80.31565918 -16.10966309 79.3905957 -15.875 78.4375 C-13.96447777 70.36201476 -12.2210022 62.28047308 -10.6875 54.125 C-8.43761222 42.19117748 -6.07567251 30.28182651 -3.6875 18.375 C-3.5045639 17.46236389 -3.32162781 16.54972778 -3.13314819 15.60943604 C-2.09006134 10.40602903 -1.0452629 5.20297118 0 0 Z " fill="#0C173E" transform="translate(32,238)"/>
<path d="M0 0 C22.44 0 44.88 0 68 0 C68 7 68 7 65 18 C49.49 18 33.98 18 18 18 C17.67 20.97 17.34 23.94 17 27 C16.34 29.97 15.68 32.94 15 36 C28.53 36 42.06 36 56 36 C53 53 53 53 52 54 C48.97022196 54.08871273 45.96332978 54.1151935 42.93359375 54.09765625 C42.02497086 54.0962413 41.11634796 54.09482635 40.18019104 54.09336853 C37.26592779 54.08775193 34.35174019 54.07519665 31.4375 54.0625 C29.46679798 54.05748714 27.49609476 54.05292386 25.52539062 54.04882812 C20.68356441 54.03777711 15.84179505 54.02050138 11 54 C10.86722656 54.79664063 10.73445313 55.59328125 10.59765625 56.4140625 C9.73177083 61.609375 8.86588542 66.8046875 8 72 C31.265 72.495 31.265 72.495 55 73 C55 77.67107526 54.98470885 80.99955654 54.0625 85.375 C53.88847656 86.22835937 53.71445312 87.08171875 53.53515625 87.9609375 C53 90 53 90 52 91 C49.82194281 91.09429342 47.6407872 91.11742538 45.46069336 91.11352539 C44.77779739 91.11367142 44.09490143 91.11381744 43.39131165 91.1139679 C41.12412386 91.11326876 38.85701726 91.1054764 36.58984375 91.09765625 C35.02185613 91.09579207 33.45386793 91.09436817 31.88587952 91.09336853 C27.75123497 91.08954334 23.61662534 91.07971306 19.48199463 91.06866455 C15.26599602 91.05845044 11.04999178 91.05387091 6.83398438 91.04882812 C-1.44402647 91.03809079 -9.7220089 91.02101436 -18 91 C-16.42395684 81.20991932 -14.7937291 71.47843511 -12.5625 61.8125 C-10.84250912 54.15007898 -9.35449327 46.49657629 -8.0625 38.75 C-5.78152974 25.75538155 -2.86202671 12.8791202 0 0 Z " fill="#121C43" transform="translate(341,238)"/>
<path d="M0 0 C25.74 0 51.48 0 78 0 C77 9 77 9 75 18 C65.43 18 55.86 18 46 18 C45.67 21.96 45.34 25.92 45 30 C44.48589037 33.0312147 43.94059387 36.00085867 43.29296875 39 C43.127435 39.79565872 42.96190125 40.59131744 42.79135132 41.41108704 C42.2633527 43.94216555 41.7256101 46.47105404 41.1875 49 C40.82145367 50.7448827 40.456141 52.48991948 40.09155273 54.23510742 C39.55332264 56.81060288 39.01454473 59.385969 38.47285461 61.96073914 C36.95191037 69.19234874 35.50096034 76.43670606 34.10424805 83.69335938 C33.10635045 88.78729911 33.10635045 88.78729911 32 91 C24.74 91 17.48 91 10 91 C10.31453125 89.46214844 10.6290625 87.92429687 10.953125 86.33984375 C13.11204681 75.70647494 15.20253651 65.07591793 17 54.375 C18.36938507 46.26756168 19.94294634 38.22275326 21.6875 30.1875 C21.90212891 29.1960498 22.11675781 28.20459961 22.33789062 27.18310547 C23.86727529 20.26544941 23.86727529 20.26544941 25 18 C15.76 18 6.52 18 -3 18 C-2 8 -2 8 0 0 Z " fill="#0E1940" transform="translate(413,238)"/>
<path d="M0 0 C3.43807886 5.15711828 2.72283633 10.99863621 2 17 C0.71534897 20.60469244 -0.80604671 23.87576705 -2.58984375 27.2578125 C-3.82551745 29.66070153 -4.62036857 31.35640761 -5 34 C-4.33027303 35.85996839 -4.33027303 35.85996839 -3.12890625 37.6015625 C-2.71962891 38.25640625 -2.31035156 38.91125 -1.88867188 39.5859375 C-1.2322168 40.59527344 -1.2322168 40.59527344 -0.5625 41.625 C4 48.7839896 4 48.7839896 4 51 C4.66 51 5.32 51 6 51 C6.50660156 51.92232422 6.50660156 51.92232422 7.0234375 52.86328125 C7.46945312 53.67152344 7.91546875 54.47976562 8.375 55.3125 C8.81585938 56.11300781 9.25671875 56.91351563 9.7109375 57.73828125 C10.73513335 59.53527943 11.85267138 61.27900708 13 63 C13.71363933 69.06593428 11.96534983 72.90330498 9 78 C7.68 78 6.36 78 5 78 C5 77.34 5 76.68 5 76 C4.34 76 3.68 76 3 76 C1.2734375 74.1015625 1.2734375 74.1015625 -0.625 71.625 C-1.25664062 70.81289062 -1.88828125 70.00078125 -2.5390625 69.1640625 C-4 67 -4 67 -4 65 C-4.66 65 -5.32 65 -6 65 C-7.39131742 63.40288354 -8.71517335 61.74647316 -10 60.0625 C-12.54336771 56.48783076 -12.54336771 56.48783076 -16 54 C-16.12616699 54.58193115 -16.25233398 55.1638623 -16.38232422 55.76342773 C-16.99538732 57.98329771 -17.80114127 59.75786491 -18.8828125 61.78515625 C-19.24503906 62.48060547 -19.60726562 63.17605469 -19.98046875 63.89257812 C-20.7468056 65.34547955 -21.51768502 66.79599359 -22.29296875 68.24414062 C-23.26832937 70.1266915 -24.14159192 72.06132475 -25 74 C-24.67 74.99 -24.34 75.98 -24 77 C-23.34 77 -22.68 77 -22 77 C-18.34916857 81.4024732 -17.54625809 84.32822615 -18 90 C-19.703125 91.1796875 -19.703125 91.1796875 -22 92 C-24.296875 90.8828125 -24.296875 90.8828125 -26.75 89.125 C-30.17736595 86.87721495 -32.30822856 85.60022408 -36.4375 85.875 C-37.613125 85.91625 -38.78875 85.9575 -40 86 C-42 84.125 -42 84.125 -43 82 C-43 81.34 -43 80.68 -43 80 C-44.2684375 79.814375 -44.2684375 79.814375 -45.5625 79.625 C-49.15236798 78.97229673 -52.50824875 78.04752537 -56 77 C-56 73 -56 73 -54 70 C-51.42320771 69.29644885 -48.99510903 68.75482468 -46.375 68.3125 C-45.66859375 68.18294922 -44.9621875 68.05339844 -44.234375 67.91992188 C-42.49160646 67.60198437 -40.74603126 67.29950171 -39 67 C-38.66226562 65.98679687 -38.32453125 64.97359375 -37.9765625 63.9296875 C-35.984375 57.953125 -33.9921875 51.9765625 -32 46 C-33.92199219 46.10828125 -33.92199219 46.10828125 -35.8828125 46.21875 C-45.93646874 46.76505968 -55.9287978 47.15006758 -66 47 C-65.3224515 43.97177304 -64.35393258 41.22345614 -63.125 38.375 C-62.63386719 37.21097656 -62.63386719 37.21097656 -62.1328125 36.0234375 C-61 34 -61 34 -58 32 C-55.95870101 31.49982123 -53.89698915 31.08091248 -51.828125 30.7109375 C-50.60609375 30.49179688 -49.3840625 30.27265625 -48.125 30.046875 C-46.84625 29.82515625 -45.5675 29.6034375 -44.25 29.375 C-42.98671875 29.14554688 -41.7234375 28.91609375 -40.421875 28.6796875 C-34.51687434 27.63762856 -29.01328658 26.87515998 -23 27 C-22.86078125 26.41476563 -22.7215625 25.82953125 -22.578125 25.2265625 C-20.35791455 16.675752 -16.80927433 5.80570728 -9 1 C-8.34 0.566875 -7.68 0.13375 -7 -0.3125 C-4.29065907 -1.24383595 -2.68868654 -0.91981382 0 0 Z " fill="#0C163E" transform="translate(362,94)"/>
<path d="M0 0 C4.29 0 8.58 0 13 0 C13.37125 1.381875 13.7425 2.76375 14.125 4.1875 C17.85293099 16.5210287 23.92333228 28.34633213 32.4375 38.0625 C35 41 35 41 35 43 C35.66 43 36.32 43 37 43 C37 43.66 37 44.32 37 45 C37.66 45 38.32 45 39 45 C39 45.66 39 46.32 39 47 C39.66 47 40.32 47 41 47 C41 47.66 41 48.32 41 49 C41.515625 49.226875 42.03125 49.45375 42.5625 49.6875 C45.89547005 51.48217618 49.14703671 53.49965015 52 56 C52 56.66 52 57.32 52 58 C53.98 58.66 55.96 59.32 58 60 C58 60.66 58 61.32 58 62 C58.50917969 62.09667969 59.01835937 62.19335938 59.54296875 62.29296875 C62.25194996 63.0725007 64.72403321 64.19249153 67.27856445 65.37451172 C79.04185202 70.79937678 90.94626068 74.55912481 104 75 C104.92941406 75.03996094 105.85882813 75.07992187 106.81640625 75.12109375 C130.87395654 75.66567212 152.74942337 68.04401498 172 54 C172.33 53.67 172.66 53.34 173 53 C175.125 52.5625 175.125 52.5625 178 53 C180.5876152 54.74114894 182.91335898 56.67883736 185 59 C185 59.66 185 60.32 185 61 C184.34 61 183.68 61 183 61 C183 61.66 183 62.32 183 63 C181.3203125 64.2890625 181.3203125 64.2890625 179.125 65.625 C178.40570313 66.07101563 177.68640625 66.51703125 176.9453125 66.9765625 C175 68 175 68 173 68 C173 68.66 173 69.32 173 70 C154.27543266 85.84774702 124.45501739 89.04128823 101 88 C74.4587242 85.62879973 50.75773586 74.72516999 31 57 C31 56.34 31 55.68 31 55 C30.34 55 29.68 55 29 55 C29 54.34 29 53.68 29 53 C28.34 53 27.68 53 27 53 C25.2734375 51.1015625 25.2734375 51.1015625 23.375 48.625 C22.74335938 47.81289062 22.11171875 47.00078125 21.4609375 46.1640625 C20 44 20 44 20 42 C19.34 42 18.68 42 18 42 C9.76813388 30.77816872 0 14.17535695 0 0 Z " fill="#0F193F" transform="translate(133,130)"/>
<path d="M0 0 C4.74372053 1.73944512 9.60990307 2.88212191 14.52490234 4.02636719 C18.12638682 4.8775768 21.49519727 5.89453801 24.890625 7.37109375 C24.890625 9.35109375 24.890625 11.33109375 24.890625 13.37109375 C23.900625 13.37109375 22.910625 13.37109375 21.890625 13.37109375 C21.890625 17.66109375 21.890625 21.95109375 21.890625 26.37109375 C22.550625 26.37109375 23.210625 26.37109375 23.890625 26.37109375 C23.87902344 27.0465625 23.86742187 27.72203125 23.85546875 28.41796875 C23.84644531 29.31 23.83742188 30.20203125 23.828125 31.12109375 C23.81652344 32.0028125 23.80492187 32.88453125 23.79296875 33.79296875 C23.81234679 36.64062851 23.81234679 36.64062851 24.890625 40.37109375 C21.920625 40.37109375 18.950625 40.37109375 15.890625 40.37109375 C15.890625 35.75109375 15.890625 31.13109375 15.890625 26.37109375 C16.550625 26.37109375 17.210625 26.37109375 17.890625 26.37109375 C17.890625 22.74109375 17.890625 19.11109375 17.890625 15.37109375 C15.580625 15.70109375 13.270625 16.03109375 10.890625 16.37109375 C10.91382813 17.41910156 10.93703125 18.46710938 10.9609375 19.546875 C10.97969803 20.92577412 10.99789793 22.30468095 11.015625 23.68359375 C11.03238281 24.37388672 11.04914063 25.06417969 11.06640625 25.77539062 C11.10280294 29.54244771 11.03441364 31.15541079 8.890625 34.37109375 C6.28125 35.50390625 6.28125 35.50390625 3.140625 36.49609375 C2.11453125 36.82867187 1.0884375 37.16125 0.03125 37.50390625 C-14.06590628 41.39640463 -30.78094643 40.56266872 -44.109375 34.37109375 C-45.64204082 31.30576211 -45.21213971 28.10355103 -45.171875 24.74609375 C-45.16736328 24.0396875 -45.16285156 23.33328125 -45.15820312 22.60546875 C-45.14641375 20.860641 -45.12847824 19.11585675 -45.109375 17.37109375 C-46.01300781 17.17773438 -46.91664062 16.984375 -47.84765625 16.78515625 C-49.02714844 16.52476563 -50.20664063 16.264375 -51.421875 15.99609375 C-53.17951172 15.61324219 -53.17951172 15.61324219 -54.97265625 15.22265625 C-58.109375 14.37109375 -58.109375 14.37109375 -61.109375 12.37109375 C-60.779375 10.72109375 -60.449375 9.07109375 -60.109375 7.37109375 C-58.04125658 6.6802681 -55.97292869 5.99006577 -53.90380859 5.30224609 C-51.98615987 4.66325324 -50.06988393 4.02013023 -48.15478516 3.37353516 C-30.54852949 -2.52644816 -17.98013099 -6.63910694 0 0 Z " fill="#0A153D" transform="translate(155.109375,79.62890625)"/>
<path d="M0 0 C1.74023438 0.2165625 1.74023438 0.2165625 3.515625 0.4375 C17.55399641 2.12994134 30.92003705 2.07715564 45 1 C42 3 42 3 38 3 C38.185625 3.763125 38.37125 4.52625 38.5625 5.3125 C39 8 39 8 38 11 C40.64 10.67 43.28 10.34 46 10 C46.495 11.485 46.495 11.485 47 13 C29.28465627 18.90511458 6.36260675 14.76994691 -11 10 C-8.65887549 8.55022106 -7.4203071 7.95685589 -4.640625 8.2421875 C-3.45726562 8.55542969 -3.45726562 8.55542969 -2.25 8.875 C-1.45078125 9.07867187 -0.6515625 9.28234375 0.171875 9.4921875 C1.07679688 9.74355469 1.07679688 9.74355469 2 10 C2.2165625 8.824375 2.2165625 8.824375 2.4375 7.625 C3 5 3 5 4 3 C2.68 2.67 1.36 2.34 0 2 C0 1.34 0 0.68 0 0 Z " fill="#1C2549" transform="translate(219,203)"/>
<path d="M0 0 C-1.62339805 1.70884005 -3.29319053 3.37446717 -5 5 C-5.66 5 -6.32 5 -7 5 C-7.433125 6.3303125 -7.433125 6.3303125 -7.875 7.6875 C-8.24625 8.780625 -8.6175 9.87375 -9 11 C-9.268125 11.9075 -9.53625 12.815 -9.8125 13.75 C-11 16 -11 16 -13.625 17.3125 C-14.40875 17.539375 -15.1925 17.76625 -16 18 C-16 18.66 -16 19.32 -16 20 C-18.32072938 21.38095485 -20.65252162 22.72840175 -23 24.0625 C-23.97259766 24.64741211 -23.97259766 24.64741211 -24.96484375 25.24414062 C-30.10146898 28.11759929 -33.25517487 28.37078257 -39 27 C-40.625 25.1875 -40.625 25.1875 -41 23 C-40.125 20.75 -40.125 20.75 -39 19 C-39.66 18.34 -40.32 17.68 -41 17 C-39.41800369 16.35089846 -37.83434276 15.70585306 -36.25 15.0625 C-35.36828125 14.70285156 -34.4865625 14.34320313 -33.578125 13.97265625 C-31.38813896 13.14643424 -29.28101729 12.50630057 -27 12 C-27 11.34 -27 10.68 -27 10 C-25.02 9.34 -23.04 8.68 -21 8 C-21 7.34 -21 6.68 -21 6 C-15.78763715 -1.56380474 -8.3414938 -0.62474433 0 0 Z " fill="#172045" transform="translate(306,152)"/>
<path d="M0 0 C3.36078131 2.94714669 5.80340298 6.26994625 6.3125 10.75 C5.84448782 15.61732665 3.39156673 18.60843327 0 22 C-6.11737749 23.34789674 -9.55518663 23.15799176 -15 20 C-16.97056339 16.99195455 -17.27169102 14.55732712 -17.25 11 C-17.25515625 10.154375 -17.2603125 9.30875 -17.265625 8.4375 C-16.97798601 5.79798931 -16.43740906 4.22319268 -15 2 C-10.02386259 -1.31742494 -5.78546978 -1.54967941 0 0 Z " fill="#101A40" transform="translate(358,378)"/>
<path d="M0 0 C11 0 11 0 15 2 C18.10113381 6.38436159 18.36400342 9.81007743 17.5859375 14.9453125 C16.7629206 17.83135842 15.40015163 19.25443518 13 21 C11 22 11 22 0 22 C0 14.74 0 7.48 0 0 Z " fill="#162046" transform="translate(422,378)"/>
<path d="M0 0 C11 0 11 0 14.125 1.875 C17.4360094 5.62747732 17.38438201 8.64838408 17.36328125 13.515625 C16.81933598 17.2355088 14.91576392 18.79539801 12 21 C11.67 21.33 11.34 21.66 11 22 C7.37 22 3.74 22 0 22 C0 14.74 0 7.48 0 0 Z " fill="#09133A" transform="translate(151,378)"/>
<path d="M0 0 C4.28023997 0.65134087 7.01903154 3.26054374 9.875 6.4375 C9.875 7.0975 9.875 7.7575 9.875 8.4375 C9.215 8.4375 8.555 8.4375 7.875 8.4375 C7.875 9.0975 7.875 9.7575 7.875 10.4375 C6.1953125 11.7265625 6.1953125 11.7265625 4 13.0625 C3.28070313 13.50851563 2.56140625 13.95453125 1.8203125 14.4140625 C-0.125 15.4375 -0.125 15.4375 -2.125 15.4375 C-2.125 16.0975 -2.125 16.7575 -2.125 17.4375 C-5.425 19.0875 -8.725 20.7375 -12.125 22.4375 C-12.455 21.4475 -12.785 20.4575 -13.125 19.4375 C-14.115 19.1075 -15.105 18.7775 -16.125 18.4375 C-15.135 15.7975 -14.145 13.1575 -13.125 10.4375 C-13.785 10.1075 -14.445 9.7775 -15.125 9.4375 C-13.84302734 8.58865234 -13.84302734 8.58865234 -12.53515625 7.72265625 C-11.4192305 6.98183159 -10.30334728 6.24094286 -9.1875 5.5 C-8.62353516 5.12681641 -8.05957031 4.75363281 -7.47851562 4.36914062 C-1.31130038 0.26997361 -1.31130038 0.26997361 0 0 Z " fill="#131C42" transform="translate(308.125,182.5625)"/>
<path d="M0 0 C4.29 0 8.58 0 13 0 C13.680625 2.3203125 13.680625 2.3203125 14.375 4.6875 C15.20895797 7.50707218 16.05449076 10.12260422 17.25 12.8125 C18.18717211 15.54591864 17.78308668 17.25919663 17 20 C15.02 19.34 13.04 18.68 11 18 C10.67 18.66 10.34 19.32 10 20 C9.34 19.67 8.68 19.34 8 19 C7.67 20.32 7.34 21.64 7 23 C6.00847274 20.67127542 5.03183993 18.3379503 4.0625 16 C3.78470703 15.35160156 3.50691406 14.70320312 3.22070312 14.03515625 C1.28519888 9.32465193 0.44748523 5.07527556 0 0 Z " fill="#0D173D" transform="translate(133,130)"/>
<path d="M0 0 C3.71599191 -0.20086443 4.77208445 -0.1519437 8 2 C8 2.99 8 3.98 8 5 C9.65 5 11.3 5 13 5 C15 9 17 13 19 17 C17.68 18.32 16.36 19.64 15 21 C14.01 20.67 13.02 20.34 12 20 C12 19.34 12 18.68 12 18 C11.29875 18.103125 10.5975 18.20625 9.875 18.3125 C5.63680749 17.8518269 4.02666471 15.95627716 1 13 C1 12.34 1 11.68 1 11 C0.34 11 -0.32 11 -1 11 C-1 10.34 -1 9.68 -1 9 C-1.66 9 -2.32 9 -3 9 C-3.625 7.1875 -3.625 7.1875 -4 5 C-3.34 4.01 -2.68 3.02 -2 2 C-1.34 2 -0.68 2 0 2 C0 1.34 0 0.68 0 0 Z " fill="#0E173E" transform="translate(163,174)"/>
<path d="M0 0 C0.33 0.66 0.66 1.32 1 2 C0.67 2.66 0.34 3.32 0 4 C0.598125 4.268125 1.19625 4.53625 1.8125 4.8125 C4.07573361 6.04111253 5.51540577 6.89031346 7 9 C6.37521504 14.42092835 3.70599345 18.35124203 1 23 C-2.96 22.01 -6.92 21.02 -11 20 C-10.06877774 15.34388869 -8.99787373 12.86983804 -6.625 8.875 C-6.01914063 7.84117188 -5.41328125 6.80734375 -4.7890625 5.7421875 C-3.32115196 3.49224601 -1.99204841 1.7720676 0 0 Z " fill="#08133B" transform="translate(180,53)"/>
<path d="M0 0 C1.65 0.33 3.3 0.66 5 1 C5 2.98 5 4.96 5 7 C4.01 7 3.02 7 2 7 C2 11.29 2 15.58 2 20 C2.66 20 3.32 20 4 20 C3.98839844 20.67546875 3.97679687 21.3509375 3.96484375 22.046875 C3.95582031 22.93890625 3.94679687 23.8309375 3.9375 24.75 C3.92589844 25.63171875 3.91429687 26.5134375 3.90234375 27.421875 C3.92172179 30.26953476 3.92172179 30.26953476 5 34 C2.03 34 -0.94 34 -4 34 C-4 29.38 -4 24.76 -4 20 C-3.34 20 -2.68 20 -2 20 C-2 16.37 -2 12.74 -2 9 C-3.65 9.33 -5.3 9.66 -7 10 C-5 8 -5 8 -2 6 C-2 5.34 -2 4.68 -2 4 C-1.01 4 -0.02 4 1 4 C1.33 3.34 1.66 2.68 2 2 C1.34 2 0.68 2 0 2 C0 1.34 0 0.68 0 0 Z " fill="#474C66" transform="translate(175,86)"/>
<path d="M0 0 C7.97122862 -0.35692068 7.97122862 -0.35692068 12.0625 1.0625 C14 3 14 3 14.4375 6.5625 C14 10 14 10 12 12 C7.98805634 12.27783543 4.02552638 12.0856495 0 12 C0 8.04 0 4.08 0 0 Z " fill="#040F39" transform="translate(306,377)"/>
<path d="M0 0 C-1.62339805 1.70884005 -3.29319053 3.37446717 -5 5 C-5.66 5 -6.32 5 -7 5 C-7.433125 6.3303125 -7.433125 6.3303125 -7.875 7.6875 C-8.24625 8.780625 -8.6175 9.87375 -9 11 C-9.309375 11.928125 -9.61875 12.85625 -9.9375 13.8125 C-10.288125 14.534375 -10.63875 15.25625 -11 16 C-11.99 16.33 -12.98 16.66 -14 17 C-14.66 16.67 -15.32 16.34 -16 16 C-16 15.01 -16 14.02 -16 13 C-15.34 13 -14.68 13 -14 13 C-14.66 11.35 -15.32 9.7 -16 8 C-16.33 8.66 -16.66 9.32 -17 10 C-19.97 9.505 -19.97 9.505 -23 9 C-22.34 8.67 -21.68 8.34 -21 8 C-21 7.34 -21 6.68 -21 6 C-15.78763715 -1.56380474 -8.3414938 -0.62474433 0 0 Z " fill="#161E41" transform="translate(306,152)"/>
<path d="M0 0 C0.98871094 -0.01417969 1.97742188 -0.02835937 2.99609375 -0.04296875 C5.5625 0.1875 5.5625 0.1875 7.5625 2.1875 C7.6875 5.8125 7.6875 5.8125 7.5625 9.1875 C4.79797967 10.56976016 2.5163637 10.28275387 -0.5625 10.25 C-1.65820312 10.24097656 -2.75390625 10.23195313 -3.8828125 10.22265625 C-5.14738281 10.20525391 -5.14738281 10.20525391 -6.4375 10.1875 C-6.46439216 8.70843108 -6.48384621 7.22922517 -6.5 5.75 C-6.51160156 4.92628906 -6.52320313 4.10257812 -6.53515625 3.25390625 C-6.33772333 -0.92377424 -3.54989248 0.02308123 0 0 Z " fill="#222A4B" transform="translate(276.4375,390.8125)"/>
<path d="M0 0 C2.97 0.33 5.94 0.66 9 1 C9 1.66 9 2.32 9 3 C11.97 3.495 11.97 3.495 15 4 C13.66666667 6.66666667 12.33333333 9.33333333 11 12 C10.40832031 11.855625 9.81664062 11.71125 9.20703125 11.5625 C5.07470059 10.59177306 1.2770238 9.72406298 -3 10 C-3 9.34 -3 8.68 -3 8 C-2.34 8 -1.68 8 -1 8 C-0.67 5.36 -0.34 2.72 0 0 Z " fill="#050F38" transform="translate(210,202)"/>
<path d="M0 0 C2.54207423 2.78930839 5 6.128173 5 10 C5.33 10.99 5.66 11.98 6 13 C-8.10958904 8.89041096 -8.10958904 8.89041096 -10 7 C-10.25 4.5625 -10.25 4.5625 -10 2 C-6.20189934 -0.53206711 -4.49065077 -0.77425013 0 0 Z " fill="#3A4262" transform="translate(54,376)"/>
<path d="M0 0 C-1.98 0.99 -3.96 1.98 -6 3 C-5.67 4.32 -5.34 5.64 -5 7 C-5.99 7.495 -5.99 7.495 -7 8 C-6.67 9.65 -6.34 11.3 -6 13 C-7.60568666 12.71682074 -9.20952047 12.42312209 -10.8125 12.125 C-11.70582031 11.96257812 -12.59914063 11.80015625 -13.51953125 11.6328125 C-16 11 -16 11 -19 9 C-18.67 7.35 -18.34 5.7 -18 4 C-15.79763246 3.26587749 -13.5950663 2.53256906 -11.390625 1.8046875 C-9.45696272 1.15381425 -7.53825702 0.45861371 -5.625 -0.25 C-3 -1 -3 -1 0 0 Z " fill="#1F2849" transform="translate(113,83)"/>
<path d="M0 0 C1.95766281 -0.08082094 3.91626728 -0.13910778 5.875 -0.1875 C7.51082031 -0.23970703 7.51082031 -0.23970703 9.1796875 -0.29296875 C10.11039062 -0.19628906 11.04109375 -0.09960938 12 0 C14 3 14 3 13.6875 5.625 C13 8 13 8 12 9 C9.98035801 9.07244053 7.95832876 9.08377188 5.9375 9.0625 C4.83277344 9.05347656 3.72804688 9.04445313 2.58984375 9.03515625 C1.30787109 9.01775391 1.30787109 9.01775391 0 9 C0 6.03 0 3.06 0 0 Z " fill="#2D3554" transform="translate(270,377)"/>
<path d="M0 0 C0.66 0 1.32 0 2 0 C2.67528223 1.57967807 3.33989694 3.16391903 4 4.75 C4.37125 5.63171875 4.7425 6.5134375 5.125 7.421875 C6 10 6 10 6 14 C2.37 14 -1.26 14 -5 14 C-2.05357143 3.82142857 -2.05357143 3.82142857 0 0 Z " fill="#141D40" transform="translate(239,381)"/>
<path d="M0 0 C4.75 0.75 4.75 0.75 7 3 C7.3125 5.5 7.3125 5.5 7 8 C3.53001271 10.31332486 2.07490752 10.33957563 -2 10 C-2.99 9.34 -3.98 8.68 -5 8 C-4.67 5.69 -4.34 3.38 -4 1 C-2.35 1.33 -0.7 1.66 1 2 C0.67 1.34 0.34 0.68 0 0 Z " fill="#1B2549" transform="translate(50,392)"/>
<path d="M0 0 C0.66 0 1.32 0 2 0 C2.67467562 1.74692795 3.33944156 3.49768525 4 5.25 C4.556875 6.71179688 4.556875 6.71179688 5.125 8.203125 C6 11 6 11 6 15 C2.7 15 -0.6 15 -4 15 C-3.32584613 9.7415998 -1.75734451 4.97361654 0 0 Z " fill="#40455E" transform="translate(390,380)"/>
<path d="M0 0 C0.33 0 0.66 0 1 0 C1 7.26 1 14.52 1 22 C-0.32 21.01 -1.64 20.02 -3 19 C-3.66 19.33 -4.32 19.66 -5 20 C-4.91621094 19.33613281 -4.83242188 18.67226563 -4.74609375 17.98828125 C-3.94574958 11.45279152 -3.94574958 11.45279152 -5 5 C-4.01 5 -3.02 5 -2 5 C-1.7834375 4.0409375 -1.7834375 4.0409375 -1.5625 3.0625 C-1 1 -1 1 0 0 Z " fill="#050F35" transform="translate(297,383)"/>
<path d="M0 0 C4.29 0.33 8.58 0.66 13 1 C13.33 2.32 13.66 3.64 14 5 C13.34 5.66 12.68 6.32 12 7 C9.375 6.625 9.375 6.625 7 6 C6.67 7.32 6.34 8.64 6 10 C5.01 10 4.02 10 3 10 C0.96564469 6.27034861 0 4.33094958 0 0 Z " fill="#0D1639" transform="translate(167,130)"/>
<path d="M0 0 C0 1.32 0 2.64 0 4 C-0.66 4 -1.32 4 -2 4 C-2 4.99 -2 5.98 -2 7 C-1.34 7 -0.68 7 0 7 C0 7.66 0 8.32 0 9 C-5.30679157 10.20608899 -5.30679157 10.20608899 -8.3125 9.3125 C-10.39993284 7.68894113 -10.65660347 6.57547398 -11 4 C-10.34 4 -9.68 4 -9 4 C-9.33 3.01 -9.66 2.02 -10 1 C-8.66666667 0.66666667 -7.33333333 0.33333333 -6 0 C-5.29875 -0.20625 -4.5975 -0.4125 -3.875 -0.625 C-2 -1 -2 -1 0 0 Z " fill="#06113B" transform="translate(292,161)"/>
<path d="M0 0 C10.66887503 0.20410022 19.92071209 2.72875806 30 6 C26.98968256 6.93423645 26.13349732 7.04449911 23 6 C23 6.66 23 7.32 23 8 C22.34 8 21.68 8 21 8 C20.67 8.66 20.34 9.32 20 10 C19.67 9.01 19.34 8.02 19 7 C17.35 7.66 15.7 8.32 14 9 C11 4.25 11 4.25 11 2 C10.06027344 2.03480469 10.06027344 2.03480469 9.1015625 2.0703125 C7.87566406 2.09738281 7.87566406 2.09738281 6.625 2.125 C5.81289062 2.14820313 5.00078125 2.17140625 4.1640625 2.1953125 C2 2 2 2 0 0 Z " fill="#272E50" transform="translate(246,23)"/>
<path d="M0 0 C0 0.33 0 0.66 0 1 C-1.98 1 -3.96 1 -6 1 C-5.2265625 2.175625 -5.2265625 2.175625 -4.4375 3.375 C-3.963125 4.24125 -3.48875 5.1075 -3 6 C-3.33 6.66 -3.66 7.32 -4 8 C-5.32 7.34 -6.64 6.68 -8 6 C-8 6.99 -8 7.98 -8 9 C-8.66 9.66 -9.32 10.32 -10 11 C-10.53625 10.071875 -11.0725 9.14375 -11.625 8.1875 C-14.17894631 4.75983521 -16.09810078 3.5962315 -20 2 C-17 0 -17 0 -15 0 C-15 0.66 -15 1.32 -15 2 C-12.69931502 1.48873667 -10.76574897 0.88903899 -8.625 -0.125 C-5.39554082 -1.20148639 -3.27528739 -0.76169474 0 0 Z " fill="#313958" transform="translate(184,371)"/>
<path d="M0 0 C0 2.31 0 4.62 0 7 C-0.99 7.495 -0.99 7.495 -2 8 C-2.72693904 9.97888961 -3.39816251 11.97954558 -4 14 C-4.66 14 -5.32 14 -6 14 C-6.33 14.66 -6.66 15.32 -7 16 C-7 15.01 -7 14.02 -7 13 C-8.32 13 -9.64 13 -11 13 C-11.66 11.35 -12.32 9.7 -13 8 C-10 6 -10 6 -7.9375 6.3125 C-6 7 -6 7 -4 8 C-4 7.34 -4 6.68 -4 6 C-3.34 6 -2.68 6 -2 6 C-2.33 4.35 -2.66 2.7 -3 1 C-1 0 -1 0 0 0 Z " fill="#1D2548" transform="translate(333,386)"/>
<path d="M0 0 C1.65 0 3.3 0 5 0 C5.33 0.99 5.66 1.98 6 3 C6.66 3 7.32 3 8 3 C8 3.66 8 4.32 8 5 C8.66 5 9.32 5 10 5 C10 5.66 10 6.32 10 7 C10.66 7 11.32 7 12 7 C12 7.66 12 8.32 12 9 C11.01 9 10.02 9 9 9 C9 8.01 9 7.02 9 6 C6.36 5.34 3.72 4.68 1 4 C1 4.66 1 5.32 1 6 C-0.62626404 7.38232443 -2.2925002 8.71937515 -4 10 C-7.93846154 6.67692308 -7.93846154 6.67692308 -8.25 3.25 C-8.1675 2.5075 -8.085 1.765 -8 1 C-6.824375 1.495 -6.824375 1.495 -5.625 2 C-3.15667503 3.11866511 -3.15667503 3.11866511 -1 3 C-0.67 2.01 -0.34 1.02 0 0 Z " fill="#1C2547" transform="translate(162,170)"/>
<path d="M0 0 C-0.66 1.98 -1.32 3.96 -2 6 C-0.02 6.66 1.96 7.32 4 8 C4 8.33 4 8.66 4 9 C1.69 9 -0.62 9 -3 9 C-3 9.66 -3 10.32 -3 11 C-4.65 11 -6.3 11 -8 11 C-8.83686751 8.0709637 -9.07479299 6.2923726 -8.3125 3.3125 C-6.10786632 -0.57185458 -4.22750852 -1.40916951 0 0 Z " fill="#040F36" transform="translate(268,171)"/>
<path d="M0 0 C0.33 0 0.66 0 1 0 C1.06058594 0.60328125 1.12117187 1.2065625 1.18359375 1.828125 C1.26738281 2.62734375 1.35117188 3.4265625 1.4375 4.25 C1.55931641 5.43335937 1.55931641 5.43335937 1.68359375 6.640625 C1.99511197 9.29618363 1.99511197 9.29618363 3 13 C0.03 13 -2.94 13 -6 13 C-5.67 10.03 -5.34 7.06 -5 4 C-3.35 3.67 -1.7 3.34 0 3 C0 2.01 0 1.02 0 0 Z " fill="#0F193E" transform="translate(177,107)"/>
<path d="M0 0 C22.11 0 44.22 0 67 0 C66.67 1.65 66.34 3.3 66 5 C65.01 3.515 65.01 3.515 64 2 C61.21401827 1.52120602 61.21401827 1.52120602 57.89794922 1.56762695 C56.61677216 1.54783279 55.33559509 1.52803864 54.01559448 1.50764465 C52.61196031 1.50087434 51.20832454 1.49442754 49.8046875 1.48828125 C48.37263436 1.47144159 46.94059607 1.45329232 45.50857544 1.43388367 C41.73733153 1.38629942 37.96614779 1.356545 34.19470215 1.33044434 C30.34712842 1.30068096 26.49976222 1.25413629 22.65234375 1.20898438 C15.10166528 1.12285564 7.55097187 1.05555341 0 1 C0 0.67 0 0.34 0 0 Z " fill="#0D122E" transform="translate(342,239)"/>
<path d="M0 0 C1.98 0 3.96 0 6 0 C6.99 2.31 7.98 4.62 9 7 C8.10546875 9.015625 8.10546875 9.015625 6 11 C2.7427229 11.37942771 -0.43127358 11.05013499 -3.6875 10.75 C-4.58017578 10.68425781 -5.47285156 10.61851563 -6.39257812 10.55078125 C-8.59718985 10.3857301 -10.79846902 10.20149283 -13 10 C-13 9.67 -13 9.34 -13 9 C-12.01257813 8.97421875 -11.02515625 8.9484375 -10.0078125 8.921875 C-8.72648438 8.86515625 -7.44515625 8.8084375 -6.125 8.75 C-4.84882813 8.70359375 -3.57265625 8.6571875 -2.2578125 8.609375 C1.09188105 8.37444944 1.09188105 8.37444944 2.4453125 5.953125 C2.62835938 5.30859375 2.81140625 4.6640625 3 4 C2.01 2.68 1.02 1.36 0 0 Z " fill="#050F34" transform="translate(251,25)"/>
<path d="M0 0 C9.57 0 19.14 0 29 0 C29 0.33 29 0.66 29 1 C19.76 1 10.52 1 1 1 C1 2.98 1 4.96 1 7 C4.63 7 8.26 7 12 7 C12 10.96 12 14.92 12 19 C11.67 19 11.34 19 11 19 C11 15.37 11 11.74 11 8 C5.47749918 8.32554769 5.47749918 8.32554769 0 9 C-0.33 9.66 -0.66 10.32 -1 11 C-1.99 10.67 -2.98 10.34 -4 10 C-4 9.01 -4 8.02 -4 7 C-2.68 7 -1.36 7 0 7 C0 4.69 0 2.38 0 0 Z " fill="#575F7A" transform="translate(67,371)"/>
<path d="M0 0 C0.33 0.99 0.66 1.98 1 3 C5.02992782 2.44687265 9.02022924 1.8441938 13 1 C12.67 2.98 12.34 4.96 12 7 C12.99 7.33 13.98 7.66 15 8 C11.7 8.66 8.4 9.32 5 10 C4.34 8.02 3.68 6.04 3 4 C1.68 4 0.36 4 -1 4 C-0.67 2.68 -0.34 1.36 0 0 Z " fill="#2B3655" transform="translate(216,112)"/>
<path d="M0 0 C1.98 0.66 3.96 1.32 6 2 C6 1.34 6 0.68 6 0 C6.99 0.33 7.98 0.66 9 1 C8.814375 1.556875 8.62875 2.11375 8.4375 2.6875 C7.92448835 5.399133 8.3359276 7.34371039 9 10 C7.0625 9.625 7.0625 9.625 5 9 C4.67 8.34 4.34 7.68 4 7 C1.36 7 -1.28 7 -4 7 C-3.43628586 3.73045798 -2.50037734 2.17424117 0 0 Z " fill="#050E3A" transform="translate(263,29)"/>
<path d="M0 0 C0.95827504 3.04498611 0.99431517 5.02273931 0.22265625 8.109375 C0.03896484 8.86347656 -0.14472656 9.61757813 -0.33398438 10.39453125 C-0.53314453 11.17183594 -0.73230469 11.94914062 -0.9375 12.75 C-1.23043945 13.93916016 -1.23043945 13.93916016 -1.52929688 15.15234375 C-2.01124079 17.10362885 -2.50452088 19.05210783 -3 21 C-8.28 21 -13.56 21 -19 21 C-19 20.67 -19 20.34 -19 20 C-14.38 20 -9.76 20 -5 20 C-5 18.02 -5 16.04 -5 14 C-4.67 13.34 -4.34 12.68 -4 12 C-3.7724985 10.12943209 -3.59037189 8.25314042 -3.4375 6.375 C-3.35371094 5.37210937 -3.26992187 4.36921875 -3.18359375 3.3359375 C-3.12300781 2.56507813 -3.06242188 1.79421875 -3 1 C-2.01 0.67 -1.02 0.34 0 0 Z " fill="#676C84" transform="translate(229,308)"/>
<path d="M0 0 C8.25 0 16.5 0 25 0 C25 0.99 25 1.98 25 3 C24.34 3 23.68 3 23 3 C23 3.66 23 4.32 23 5 C21.25 6.5078125 21.25 6.5078125 19 8.125 C18.2575 8.66382813 17.515 9.20265625 16.75 9.7578125 C15.88375 10.37269531 15.88375 10.37269531 15 11 C15 10.01 15 9.02 15 8 C15.66 8 16.32 8 17 8 C17 6.68 17 5.36 17 4 C16.34 3.67 15.68 3.34 15 3 C15.66 2.67 16.32 2.34 17 2 C11.39 1.67 5.78 1.34 0 1 C0 0.67 0 0.34 0 0 Z " fill="#727A8E" transform="translate(91,238)"/>
<path d="M0 0 C2.74277578 3.19990508 4.6302836 6.00499382 6 10 C4.68 11.32 3.36 12.64 2 14 C1.01 13.67 0.02 13.34 -1 13 C-1 12.34 -1 11.68 -1 11 C-2.32 10.67 -3.64 10.34 -5 10 C-4.34 9.34 -3.68 8.68 -3 8 C-2.3574765 5.93125966 -2.3574765 5.93125966 -2 4 C-1.34 4 -0.68 4 0 4 C0 2.68 0 1.36 0 0 Z " fill="#040F37" transform="translate(176,181)"/>
<path d="M0 0 C2 1.5625 2 1.5625 4 4 C4.25 7.75 4.25 7.75 4 11 C2.02 11.99 2.02 11.99 0 13 C-1.65 11.68 -3.3 10.36 -5 9 C-4.505 8.5875 -4.01 8.175 -3.5 7.75 C-1.56613908 5.87797662 -1.56613908 5.87797662 -2 2 C-1.34 2 -0.68 2 0 2 C0 1.34 0 0.68 0 0 Z " fill="#222A4A" transform="translate(340,173)"/>
<path d="M0 0 C5.53846154 0.61538462 5.53846154 0.61538462 7.875 2.5625 C8.431875 3.2740625 8.431875 3.2740625 9 4 C8.67 4.99 8.34 5.98 8 7 C7.01 7.33 6.02 7.66 5 8 C4.01 9.485 4.01 9.485 3 11 C0.375 11.1875 0.375 11.1875 -2 11 C-1.67 10.484375 -1.34 9.96875 -1 9.4375 C0.32010877 6.21973488 0.13242105 3.4429472 0 0 Z " fill="#040E37" transform="translate(218,170)"/>
<path d="M0 0 C0.33 0.66 0.66 1.32 1 2 C1.99 2.33 2.98 2.66 4 3 C3.3503125 3.804375 3.3503125 3.804375 2.6875 4.625 C0.79312397 7.29115885 -0.59312806 10.05226832 -2 13 C-4.19578473 10.32687076 -5.19649201 8.32881882 -6 5 C-6.66 4.67 -7.32 4.34 -8 4 C-5.35261084 2.5393715 -4.10551666 2 -1 2 C-0.67 1.34 -0.34 0.68 0 0 Z " fill="#040F37" transform="translate(371,158)"/>
<path d="M0 0 C3.63 0 7.26 0 11 0 C10.67 1.65 10.34 3.3 10 5 C4.25 6.125 4.25 6.125 2 5 C2 8.3 2 11.6 2 15 C1.67 15 1.34 15 1 15 C0.67 10.05 0.34 5.1 0 0 Z " fill="#121A41" transform="translate(422,378)"/>
<path d="M0 0 C0.33 0 0.66 0 1 0 C1.37322228 6.5780426 -0.03250849 12.54796264 -1.5 18.9375 C-1.73847656 20.00291016 -1.97695313 21.06832031 -2.22265625 22.16601562 C-2.80850659 24.77890813 -3.40111458 27.39007007 -4 30 C-4.87840996 26.90279155 -4.99435406 25.09354597 -4 22 C-4.66 21.67 -5.32 21.34 -6 21 C-5.2884375 19.5459375 -5.2884375 19.5459375 -4.5625 18.0625 C-2.97457884 14.40434519 -2.5738428 11.03667787 -2.25 7.08984375 C-1.94057225 4.50322115 -1.13114852 2.33770694 0 0 Z " fill="#444C64" transform="translate(315,279)"/>
<path d="M0 0 C2.97 0 5.94 0 9 0 C7.04783565 1.95216435 5.46800047 2.84826645 3 4 C3 5.65 3 7.3 3 9 C4.32 9 5.64 9 7 9 C7 9.66 7 10.32 7 11 C7.66 11.33 8.32 11.66 9 12 C6.03 12 3.06 12 0 12 C0 8.04 0 4.08 0 0 Z " fill="#474C66" transform="translate(306,377)"/>
<path d="M0 0 C0.66 0 1.32 0 2 0 C2.33 11.22 2.66 22.44 3 34 C1.02 33.34 -0.96 32.68 -3 32 C-3 31.01 -3 30.02 -3 29 C-1.68 28.67 -0.36 28.34 1 28 C0.67 18.76 0.34 9.52 0 0 Z " fill="#080E2F" transform="translate(412,374)"/>
<path d="M0 0 C4.62 0 9.24 0 14 0 C14 7.875 14 7.875 12 11 C10.23537317 7.91190305 10 6.76687864 10 3 C6.7 2.34 3.4 1.68 0 1 C0 0.67 0 0.34 0 0 Z " fill="#4D536C" transform="translate(382,311)"/>
<path d="M0 0 C1.125 3.75 1.125 3.75 0 6 C-0.66 6 -1.32 6 -2 6 C-3.07525194 8.65228812 -4.09456151 11.28368454 -5 14 C-8.5625 15.1875 -8.5625 15.1875 -12 16 C-12.33 14.35 -12.66 12.7 -13 11 C-12.67 11.99 -12.34 12.98 -12 14 C-9.58933155 11.65448475 -7.29805421 9.40844466 -5.3125 6.6875 C-4.6628125 5.8521875 -4.6628125 5.8521875 -4 5 C-3.34 5 -2.68 5 -2 5 C-1.34 3.35 -0.68 1.7 0 0 Z " fill="#383D5B" transform="translate(274,278)"/>
<path d="M0 0 C0.33 0 0.66 0 1 0 C1 11.22 1 22.44 1 34 C-0.98 33.34 -2.96 32.68 -5 32 C-3.625 30.5 -3.625 30.5 -2 29 C-1.34 29 -0.68 29 0 29 C0 19.43 0 9.86 0 0 Z " fill="#060F2B" transform="translate(262,373)"/>
<path d="M0 0 C3.49234244 -0.09978121 6.59437148 0.22157062 10 1 C9.67 1.99 9.34 2.98 9 4 C7.35 4 5.7 4 4 4 C4.33 5.32 4.66 6.64 5 8 C4.01 8.33 3.02 8.66 2 9 C1.34 8.67 0.68 8.34 0 8 C0 5.36 0 2.72 0 0 Z " fill="#050E38" transform="translate(150,161)"/>
<path d="M0 0 C0.33 0.66 0.66 1.32 1 2 C0.0625 4.125 0.0625 4.125 -1 6 C-0.34 6.66 0.32 7.32 1 8 C0.01 8.66 -0.98 9.32 -2 10 C-3.05104383 11.63495707 -4.05988318 13.29883624 -5 15 C-5.33 14.34 -5.66 13.68 -6 13 C-6.66 12.67 -7.32 12.34 -8 12 C-7.23570339 10.55901389 -6.46327445 9.12233946 -5.6875 7.6875 C-5.25824219 6.88699219 -4.82898438 6.08648437 -4.38671875 5.26171875 C-3.09940446 3.16212728 -1.81593292 1.64552279 0 0 Z " fill="#1D2646" transform="translate(180,53)"/>
<path d="M0 0 C1.5 1.375 1.5 1.375 3 3 C3 3.66 3 4.32 3 5 C1.35 5 -0.3 5 -2 5 C-2.33 5.66 -2.66 6.32 -3 7 C2.94 7 8.88 7 15 7 C15 7.33 15 7.66 15 8 C8.4 8 1.8 8 -5 8 C-4.34 5.69 -3.68 3.38 -3 1 C-2.01 0.67 -1.02 0.34 0 0 Z " fill="#5D6480" transform="translate(428,321)"/>
<path d="M0 0 C1.65 0.33 3.3 0.66 5 1 C6 6.75 6 6.75 6 9 C4.35 9.33 2.7 9.66 1 10 C-0.76462683 6.91190305 -1 5.76687864 -1 2 C-0.67 1.34 -0.34 0.68 0 0 Z " fill="#050F38" transform="translate(307,184)"/>
<path d="M0 0 C-0.20625 1.2375 -0.4125 2.475 -0.625 3.75 C-1.06107124 7.11909835 -1.03403639 9.12841921 1 12 C-0.98 11.34 -2.96 10.68 -5 10 C-5 9.34 -5 8.68 -5 8 C-5.66 7.67 -6.32 7.34 -7 7 C-6.39816251 4.97954558 -5.72693904 2.97888961 -5 1 C-3 0 -3 0 0 0 Z " fill="#040E36" transform="translate(295,193)"/>
<path d="M0 0 C0.33 0.66 0.66 1.32 1 2 C1.66 1.67 2.32 1.34 3 1 C4.6674606 0.91573906 6.33825187 0.89274857 8.0078125 0.90234375 C8.99394531 0.90556641 9.98007813 0.90878906 10.99609375 0.91210938 C12.02863281 0.92048828 13.06117188 0.92886719 14.125 0.9375 C15.68541016 0.94426758 15.68541016 0.94426758 17.27734375 0.95117188 C19.85161962 0.96298048 22.42578146 0.97944925 25 1 C25 1.33 25 1.66 25 2 C24.41621582 2.01458252 23.83243164 2.02916504 23.23095703 2.04418945 C20.52838041 2.11969085 17.82690536 2.21600338 15.125 2.3125 C13.74828125 2.34633789 13.74828125 2.34633789 12.34375 2.38085938 C5.8274046 2.63325303 0.1484505 3.83659441 -6 6 C-5.25 3.5625 -5.25 3.5625 -4 1 C-1.875 0.1875 -1.875 0.1875 0 0 Z " fill="#727890" transform="translate(227,34)"/>
<path d="M0 0 C0.66 1.32 1.32 2.64 2 4 C7.28 4 12.56 4 18 4 C18.33 4.66 18.66 5.32 19 6 C12.73 6 6.46 6 0 6 C-1 3 -1 3 0 0 Z " fill="#696C82" transform="translate(15,323)"/>
<path d="M0 0 C2.35953094 2.35953094 2.49141413 3.77895617 3 7 C3.99 7 4.98 7 6 7 C6 7.99 6 8.98 6 10 C6.66 10.33 7.32 10.66 8 11 C7.01 12.485 7.01 12.485 6 14 C4.68 13.67 3.36 13.34 2 13 C1.66307215 11.39658445 1.33058907 9.79223445 1 8.1875 C0.814375 7.29417969 0.62875 6.40085937 0.4375 5.48046875 C0 3 0 3 0 0 Z " fill="#293051" transform="translate(272,47)"/>
<path d="M0 0 C0.33 0.99 0.66 1.98 1 3 C3.01508358 3.73323796 3.01508358 3.73323796 5 4 C5.20086443 7.71599191 5.1519437 8.77208445 3 12 C2.01 11.67 1.02 11.34 0 11 C-2.367713 5.02434337 -2.367713 5.02434337 -1.125 1.5625 C-0.75375 1.046875 -0.3825 0.53125 0 0 Z " fill="#050E37" transform="translate(176,375)"/>
<path d="M0 0 C1.20628008 2.33214148 2.1654738 4.49642139 3 7 C2.01 7.33 1.02 7.66 0 8 C-0.66 7.67 -1.32 7.34 -2 7 C-2.99 8.485 -2.99 8.485 -4 10 C-4.99 10 -5.98 10 -7 10 C-7 8.68 -7 7.36 -7 6 C-6.34 6 -5.68 6 -5 6 C-4.9175 5.38125 -4.835 4.7625 -4.75 4.125 C-4 2 -4 2 -1.9375 0.75 C-1.298125 0.5025 -0.65875 0.255 0 0 Z " fill="#061038" transform="translate(184,142)"/>
<path d="M0 0 C0.94875 0.04125 1.8975 0.0825 2.875 0.125 C2.875 1.775 2.875 3.425 2.875 5.125 C2.215 4.795 1.555 4.465 0.875 4.125 C0.42125 4.62 -0.0325 5.115 -0.5 5.625 C-2.125 7.125 -2.125 7.125 -4.125 7.125 C-4.75 4.75 -4.75 4.75 -5.125 2.125 C-3.125 0.125 -3.125 0.125 0 0 Z " fill="#050E34" transform="translate(51.125,376.875)"/>
<path d="M0 0 C1.31534494 3.65857532 0.65468309 6.08026481 -0.4375 9.75 C-0.72496094 10.73484375 -1.01242187 11.7196875 -1.30859375 12.734375 C-1.65083984 13.85585937 -1.65083984 13.85585937 -2 15 C-3.32 14.67 -4.64 14.34 -6 14 C-5.34 14 -4.68 14 -4 14 C-4 13.01 -4 12.02 -4 11 C-3.34 11 -2.68 11 -2 11 C-2.804375 9.9171875 -2.804375 9.9171875 -3.625 8.8125 C-5 6 -5 6 -4.375 3.25 C-3 1 -3 1 0 0 Z " fill="#414666" transform="translate(408,241)"/>
<path d="M0 0 C1.65 0 3.3 0 5 0 C4.3125 2.875 4.3125 2.875 3 6 C0.375 7.375 0.375 7.375 -2 8 C-2.33 6.35 -2.66 4.7 -3 3 C-2.34 3 -1.68 3 -1 3 C-0.67 2.01 -0.34 1.02 0 0 Z " fill="#050F37" transform="translate(138,131)"/>
<path d="M0 0 C0.33 0.99 0.66 1.98 1 3 C1.928125 2.814375 2.85625 2.62875 3.8125 2.4375 C7 2 7 2 10 3 C10 3.66 10 4.32 10 5 C10.99 5.33 11.98 5.66 13 6 C12.34 6.66 11.68 7.32 11 8 C6.71 6.68 2.42 5.36 -2 4 C-1.34 2.68 -0.68 1.36 0 0 Z " fill="#1C2342" transform="translate(258,33)"/>
<path d="M0 0 C3.125 -0.1875 3.125 -0.1875 6 0 C5.67 1.65 5.34 3.3 5 5 C5.66 5.33 6.32 5.66 7 6 C4.75 6.75 4.75 6.75 2 7 C-0.3125 5.0625 -0.3125 5.0625 -2 3 C-1.34 2.01 -0.68 1.02 0 0 Z " fill="#050F38" transform="translate(226,120)"/>
<path d="M0 0 C0.66 0 1.32 0 2 0 C2 0.66 2 1.32 2 2 C2.99 2 3.98 2 5 2 C5 2.99 5 3.98 5 5 C3.68 5.33 2.36 5.66 1 6 C0.67 7.32 0.34 8.64 0 10 C-1.32 9.34 -2.64 8.68 -4 8 C-4 7.01 -4 6.02 -4 5 C-2.68 4.34 -1.36 3.68 0 3 C0 2.01 0 1.02 0 0 Z " fill="#030D38" transform="translate(301,51)"/>
<path d="M0 0 C0.33 0 0.66 0 1 0 C1 1.65 1 3.3 1 5 C1.99 5.33 2.98 5.66 4 6 C3.01 7.98 2.02 9.96 1 12 C-1.125 9.875 -1.125 9.875 -3 7 C-1.92682927 1.92682927 -1.92682927 1.92682927 0 0 Z " fill="#27304D" transform="translate(193,375)"/>
<path d="M0 0 C-1.32 1.32 -2.64 2.64 -4 4 C-4.33 3.01 -4.66 2.02 -5 1 C-8.93075644 1.57452746 -8.93075644 1.57452746 -12 4 C-14.50059961 4.80664504 -16.33946789 5 -19 5 C-14.4401086 -2.01521755 -7.64206143 -0.4653488 0 0 Z " fill="#2A314D" transform="translate(306,152)"/>
<path d="M0 0 C4.29 0 8.58 0 13 0 C13 1.65 13 3.3 13 5 C12.01 4.34 11.02 3.68 10 3 C10 2.34 10 1.68 10 1 C7.52733235 1.34444881 7.52733235 1.34444881 5 2 C4.67 2.66 4.34 3.32 4 4 C3.34 4 2.68 4 2 4 C1.67 5.32 1.34 6.64 1 8 C0.67 5.36 0.34 2.72 0 0 Z " fill="#323752" transform="translate(133,130)"/>
<path d="M0 0 C0.33 0.66 0.66 1.32 1 2 C1.66 2 2.32 2 3 2 C3 4.64 3 7.28 3 10 C2.34 8.68 1.68 7.36 1 6 C-0.94074861 6.27617533 -0.94074861 6.27617533 -3 7 C-3.66 7.99 -4.32 8.98 -5 10 C-5 7.36 -5 4.72 -5 2 C-3.35 2 -1.7 2 0 2 C0 1.34 0 0.68 0 0 Z " fill="#434A68" transform="translate(176,104)"/>
<path d="M0 0 C0.33 0 0.66 0 1 0 C1.19466332 1.79090253 1.38051213 3.58276505 1.5625 5.375 C1.66691406 6.37273437 1.77132812 7.37046875 1.87890625 8.3984375 C2 11 2 11 1 13 C0.34 13 -0.32 13 -1 13 C-1.33 13.66 -1.66 14.32 -2 15 C-2.05406122 13.06280622 -2.09282025 11.12518079 -2.125 9.1875 C-2.14820313 8.10855469 -2.17140625 7.02960938 -2.1953125 5.91796875 C-2 3 -2 3 0 0 Z " fill="#061033" transform="translate(175,93)"/>
<path d="M0 0 C0.99 0 1.98 0 3 0 C2.42365861 4.75481646 0.44931479 7.97048212 -2 12 C-2.99 11.67 -3.98 11.34 -5 11 C-4.67 9.68 -4.34 8.36 -4 7 C-3.01 7 -2.02 7 -1 7 C-1.33 5.35 -1.66 3.7 -2 2 C-1.34 2 -0.68 2 0 2 C0 1.34 0 0.68 0 0 Z " fill="#292F49" transform="translate(183,64)"/>
<path d="M0 0 C4 0 4 0 5.75 1.375 C7 3 7 3 7 5 C4.4385343 7.29648649 3.52032428 8 0 8 C0 5.36 0 2.72 0 0 Z " fill="#040F3A" transform="translate(257,206)"/>
<path d="M0 0 C3.875 0.875 3.875 0.875 5 2 C5.04092937 4.33297433 5.04241723 6.66705225 5 9 C3.02 9.99 3.02 9.99 1 11 C1 10.01 1 9.02 1 8 C1.66 8 2.32 8 3 8 C2.67 6.35 2.34 4.7 2 3 C1.01 2.67 0.02 2.34 -1 2 C-0.67 1.34 -0.34 0.68 0 0 Z " fill="#323955" transform="translate(315,378)"/>
<path d="M0 0 C1.32 0 2.64 0 4 0 C0.92482916 10.55808656 0.92482916 10.55808656 -1 15 C-1.12375 14.360625 -1.2475 13.72125 -1.375 13.0625 C-1.58125 12.381875 -1.7875 11.70125 -2 11 C-2.66 10.67 -3.32 10.34 -4 10 C-3.01 9.67 -2.02 9.34 -1 9 C-1.33 8.01 -1.66 7.02 -2 6 C-0.0625 3.3125 -0.0625 3.3125 2 1 C1.34 0.67 0.68 0.34 0 0 Z " fill="#323956" transform="translate(380,379)"/>
<path d="M0 0 C0.33 0 0.66 0 1 0 C1.03738281 1.01320313 1.07476562 2.02640625 1.11328125 3.0703125 C1.17898388 4.42190939 1.24542971 5.77347029 1.3125 7.125 C1.33505859 7.79015625 1.35761719 8.4553125 1.38085938 9.140625 C1.62989877 13.75917371 2.68400178 17.01375105 5 21 C3.125 20.6875 3.125 20.6875 1 20 C-1.08229108 16.87656337 -1.23770457 16.46147078 -0.9765625 12.98828125 C-0.925 12.23095703 -0.8734375 11.47363281 -0.8203125 10.69335938 C-0.75585938 9.90767578 -0.69140625 9.12199219 -0.625 8.3125 C-0.56828125 7.51521484 -0.5115625 6.71792969 -0.453125 5.89648438 C-0.31183972 3.93026419 -0.15720094 1.96501176 0 0 Z " fill="#575E77" transform="translate(126,283)"/>
<path d="M0 0 C0.99 0.33 1.98 0.66 3 1 C2.34 2.32 1.68 3.64 1 5 C-0.65 4.67 -2.3 4.34 -4 4 C-4 4.66 -4 5.32 -4 6 C-6.475 5.01 -6.475 5.01 -9 4 C-9 3.34 -9 2.68 -9 2 C-6.94921875 1.77213542 -4.8984375 1.54427083 -2.84765625 1.31640625 C-0.98859771 1.18113386 -0.98859771 1.18113386 0 0 Z " fill="#060E35" transform="translate(325,161)"/>
<path d="M0 0 C0.99 0 1.98 0 3 0 C3.33 2.64 3.66 5.28 4 8 C2.35 7.67 0.7 7.34 -1 7 C-1 3 -1 3 0 0 Z " fill="#040F35" transform="translate(390,386)"/>
<path d="M0 0 C-0.66 0 -1.32 0 -2 0 C-1.83242188 0.62648438 -1.66484375 1.25296875 -1.4921875 1.8984375 C-1.28851563 2.71570313 -1.08484375 3.53296875 -0.875 4.375 C-0.56175781 5.59316406 -0.56175781 5.59316406 -0.2421875 6.8359375 C-0.16226562 7.55007813 -0.08234375 8.26421875 0 9 C-0.66 9.66 -1.32 10.32 -2 11 C-2.45375 9.865625 -2.9075 8.73125 -3.375 7.5625 C-4.57095806 3.95278308 -4.57095806 3.95278308 -7 3 C-7 2.01 -7 1.02 -7 0 C-3.98968256 -0.93423645 -3.13349732 -1.04449911 0 0 Z " fill="#1E2643" transform="translate(294,387)"/>
<path d="M0 0 C2.25597827 2.25597827 2.96574192 4.04603867 4.125 7 C4.47820312 7.886875 4.83140625 8.77375 5.1953125 9.6875 C6 12 6 12 6 14 C4.68 13.34 3.36 12.68 2 12 C2.33 10.35 2.66 8.7 3 7 C1.68 6.67 0.36 6.34 -1 6 C-1 3 -1 3 0 0 Z " fill="#3A425E" transform="translate(243,245)"/>
<path d="M0 0 C2.03833424 1.2739589 4.03852126 2.61061923 6 4 C6 4.66 6 5.32 6 6 C5.34 6 4.68 6 4 6 C4 6.66 4 7.32 4 8 C2.02 8.99 0.04 9.98 -2 11 C-2 10.01 -2 9.02 -2 8 C-1.01 8 -0.02 8 1 8 C0.7525 6.576875 0.7525 6.576875 0.5 5.125 C0 2 0 2 0 0 Z " fill="#424965" transform="translate(312,185)"/>
<path d="M0 0 C1 3 1 3 0.22265625 5.04296875 C-0.16019531 5.75066406 -0.54304688 6.45835937 -0.9375 7.1875 C-1.31777344 7.90292969 -1.69804687 8.61835938 -2.08984375 9.35546875 C-2.39019531 9.89816406 -2.69054687 10.44085938 -3 11 C-4.32 11 -5.64 11 -7 11 C-7 10.34 -7 9.68 -7 9 C-7.66 9 -8.32 9 -9 9 C-9 8.01 -9 7.02 -9 6 C-8.34 6 -7.68 6 -7 6 C-6.01 7.485 -6.01 7.485 -5 9 C-4.5978125 7.6078125 -4.5978125 7.6078125 -4.1875 6.1875 C-3.08851629 3.23759634 -2.37581439 1.94384814 0 0 Z " fill="#434A63" transform="translate(374,161)"/>
<path d="M0 0 C3.63 0.33 7.26 0.66 11 1 C11 1.33 11 1.66 11 2 C8.69 2 6.38 2 4 2 C4.33 3.98 4.66 5.96 5 8 C4.01 8.33 3.02 8.66 2 9 C0.50178941 5.62902617 0 3.79557881 0 0 Z " fill="#494D66" transform="translate(167,130)"/>
<path d="M0 0 C0.99 0 1.98 0 3 0 C2.57316761 1.58624235 2.13303842 3.1689098 1.6875 4.75 C1.44386719 5.63171875 1.20023437 6.5134375 0.94921875 7.421875 C-0.02125331 10.05772505 -1.21005644 11.85407326 -3 14 C-3.08226668 10.95613276 -2.97608217 8.92824652 -2 6 C-1.835 5.319375 -1.67 4.63875 -1.5 3.9375 C-1 2 -1 2 0 0 Z " fill="#39405C" transform="translate(359,113)"/>
<path d="M0 0 C0.66 0 1.32 0 2 0 C2.99 1.98 3.98 3.96 5 6 C4 7 4 7 1.625 7.3125 C-1 7 -1 7 -2.8125 5 C-3.204375 4.34 -3.59625 3.68 -4 3 C-2.68 2.67 -1.36 2.34 0 2 C0 1.34 0 0.68 0 0 Z " fill="#172145" transform="translate(306,54)"/>
<path d="M0 0 C4.62 0 9.24 0 14 0 C14 0.66 14 1.32 14 2 C4.58997722 3.33257403 4.58997722 3.33257403 0 2 C0 1.34 0 0.68 0 0 Z " fill="#2E3751" transform="translate(345,407)"/>
<path d="M0 0 C0.99 0.66 1.98 1.32 3 2 C2.34 3.65 1.68 5.3 1 7 C2.32 7.33 3.64 7.66 5 8 C2.09399739 9.25664978 0.20395416 10 -3 10 C-2.39009109 6.44219804 -1.4216319 3.3171411 0 0 Z " fill="#262D47" transform="translate(305,106)"/>
<path d="M0 0 C1.32 0.66 2.64 1.32 4 2 C1.84365964 4.15634036 -0.37098712 5.47793991 -3 7 C-2.34 7 -1.68 7 -1 7 C-2.75 10.875 -2.75 10.875 -5 12 C-4.34 8.37 -3.68 4.74 -3 1 C-2.67 1.66 -2.34 2.32 -2 3 C-1.34 3 -0.68 3 0 3 C0 2.01 0 1.02 0 0 Z " fill="#242C50" transform="translate(332,297)"/>
<path d="M0 0 C4.571279 0.54855348 8.67435795 1.41744803 13 3 C9.98968256 3.93423645 9.13349732 4.04449911 6 3 C6 3.66 6 4.32 6 5 C5.34 5 4.68 5 4 5 C3.67 5.66 3.34 6.32 3 7 C2.67 5.35 2.34 3.7 2 2 C1.34 2 0.68 2 0 2 C0 1.34 0 0.68 0 0 Z " fill="#333958" transform="translate(263,26)"/>
<path d="M0 0 C1.32 0.33 2.64 0.66 4 1 C3.79375 1.53625 3.5875 2.0725 3.375 2.625 C2.8685253 5.83267308 3.84599775 8.01317066 5 11 C4.67 11 4.34 11 4 11 C3.67 12.65 3.34 14.3 3 16 C2.67 16 2.34 16 2 16 C2.06510417 13.98177083 2.13020833 11.96354167 2.1953125 9.9453125 C2.18331689 7.76136355 2.18331689 7.76136355 0 6 C-0.125 2.875 -0.125 2.875 0 0 Z " fill="#050D31" transform="translate(194,60)"/>
<path d="M0 0 C0 0.66 0 1.32 0 2 C-1.36125 2.37125 -1.36125 2.37125 -2.75 2.75 C-6.10351489 4.03981342 -7.67708236 5.31971042 -10 8 C-10 4 -10 4 -8 1 C-5.07175348 0.02391783 -3.04386724 -0.08226668 0 0 Z " fill="#333953" transform="translate(316,163)"/>
<path d="M0 0 C1.66611905 -0.042721 3.33382885 -0.04063832 5 0 C6 1 6 1 6.09765625 2.84765625 C6.06510417 4.8984375 6.03255208 6.94921875 6 9 C3.59927045 6.11912454 1.52708963 3.43595166 0 0 Z " fill="#242A4A" transform="translate(144,160)"/>
<path d="M0 0 C4.875 2.75 4.875 2.75 6 5 C4.68 5.33 3.36 5.66 2 6 C1.67 7.32 1.34 8.64 1 10 C0.34 8.68 -0.32 7.36 -1 6 C-0.67 5.67 -0.34 5.34 0 5 C0.04063832 3.33382885 0.042721 1.66611905 0 0 Z " fill="#1C2448" transform="translate(196,155)"/>
<path d="M0 0 C0.66 0 1.32 0 2 0 C2 3.66666667 2 7.33333333 2 11 C0.35 9.35 -1.3 7.7 -3 6 C-1.125 1.125 -1.125 1.125 0 0 Z " fill="#101A45" transform="translate(347,293)"/>
<path d="M0 0 C3 1 3 1 4.203125 2.70703125 C4.54859375 3.40183594 4.8940625 4.09664063 5.25 4.8125 C5.60578125 5.49957031 5.9615625 6.18664062 6.328125 6.89453125 C7.11193544 9.35077442 6.84119973 10.60042386 6 13 C6 12.01 6 11.02 6 10 C5.01 9.67 4.02 9.34 3 9 C1.11420063 5.78715662 0 3.75366417 0 0 Z " fill="#393F59" transform="translate(195,252)"/>
<path d="M0 0 C0.99 0.33 1.98 0.66 3 1 C2.01 2.485 2.01 2.485 1 4 C0.61500109 5.65549531 0.27206865 7.3222433 0 9 C-0.99 9 -1.98 9 -3 9 C-3.33 7.02 -3.66 5.04 -4 3 C-3.34 3 -2.68 3 -2 3 C-1.34 2.01 -0.68 1.02 0 0 Z " fill="#2E3451" transform="translate(236,100)"/>
<path d="M0 0 C2.8125 -0.25 2.8125 -0.25 6 0 C8.04040776 2.04040776 9 3.08325244 9 6 C8.01 6 7.02 6 6 6 C6 5.01 6 4.02 6 3 C4.35 2.67 2.7 2.34 1 2 C0.67 2.99 0.34 3.98 0 5 C0 3.35 0 1.7 0 0 Z " fill="#3D445D" transform="translate(307,395)"/>
<path d="M0 0 C0 0.99 0 1.98 0 3 C-5.61 2.34 -11.22 1.68 -17 1 C-17 0.67 -17 0.34 -17 0 C-14.72979256 -0.19493195 -12.45879711 -0.38070418 -10.1875 -0.5625 C-8.92292969 -0.66691406 -7.65835937 -0.77132813 -6.35546875 -0.87890625 C-3 -1 -3 -1 0 0 Z " fill="#070F2F" transform="translate(439,370)"/>
<path d="M0 0 C0.66 0.99 1.32 1.98 2 3 C0.68 4.65 -0.64 6.3 -2 8 C-2.99 7.67 -3.98 7.34 -5 7 C-5 6.01 -5 5.02 -5 4 C-4.34 4 -3.68 4 -3 4 C-3 3.34 -3 2.68 -3 2 C-2.01 1.34 -1.02 0.68 0 0 Z " fill="#1C2445" transform="translate(293,277)"/>
<path d="M0 0 C0.99 0.99 1.98 1.98 3 3 C2.67 3.66 2.34 4.32 2 5 C2.33 5.99 2.66 6.98 3 8 C2.01 8.99 1.02 9.98 0 11 C-0.66 10.67 -1.32 10.34 -2 10 C-1.34 6.7 -0.68 3.4 0 0 Z " fill="#1E2643" transform="translate(217,269)"/>
<path d="M0 0 C0.66 0.33 1.32 0.66 2 1 C0.625 2.5 0.625 2.5 -1 4 C-1.66 4 -2.32 4 -3 4 C-3 4.99 -3 5.98 -3 7 C-6 9.1875 -6 9.1875 -9 11 C-9.66 10.67 -10.32 10.34 -11 10 C-9.37660195 8.29115995 -7.70680947 6.62553283 -6 5 C-5.34 5 -4.68 5 -4 5 C-4 4.34 -4 3.68 -4 3 C-2 1.375 -2 1.375 0 0 Z " fill="#313853" transform="translate(65,261)"/>
<path d="M0 0 C3.14688078 1.57344039 4.79965407 4.27851951 7 7 C6.34 7.66 5.68 8.32 5 9 C3.5 7.625 3.5 7.625 2 6 C2 5.34 2 4.68 2 4 C-0.97 3.505 -0.97 3.505 -4 3 C-3 1 -3 1 0 0 Z " fill="#1A2140" transform="translate(223,121)"/>
<path d="M0 0 C1.65 0.33 3.3 0.66 5 1 C5.33 2.32 5.66 3.64 6 5 C5.21625 4.79375 4.4325 4.5875 3.625 4.375 C2.325625 4.189375 2.325625 4.189375 1 4 C0.34 4.66 -0.32 5.32 -1 6 C-1.66 5.34 -2.32 4.68 -3 4 C-2.01 2.68 -1.02 1.36 0 0 Z " fill="#1B2449" transform="translate(312,400)"/>
<path d="M0 0 C2 2 2 2 2.1953125 3.9453125 C2.13020833 5.96354167 2.06510417 7.98177083 2 10 C0.35 9.01 -1.3 8.02 -3 7 C-2.38722388 4.03824877 -1.74627478 2.61941217 0 0 Z " fill="#040E34" transform="translate(187,394)"/>
<path d="M0 0 C2 2 2 2 2 6 C-1.63 6 -5.26 6 -9 6 C-9 5.34 -9 4.68 -9 4 C-6.03 4 -3.06 4 0 4 C0 2.68 0 1.36 0 0 Z " fill="#444962" transform="translate(243,389)"/>
<path d="M0 0 C2.70028512 2.82254213 3.92924572 4.39646601 4.390625 8.33203125 C4.34421875 9.48058594 4.2978125 10.62914062 4.25 11.8125 C4.21390625 12.97394531 4.1778125 14.13539063 4.140625 15.33203125 C4.09421875 16.21246094 4.0478125 17.09289062 4 18 C3.67 18 3.34 18 3 18 C2.95101562 17.31292969 2.90203125 16.62585938 2.8515625 15.91796875 C2.77679688 15.01691406 2.70203125 14.11585938 2.625 13.1875 C2.55539063 12.29417969 2.48578125 11.40085937 2.4140625 10.48046875 C2.13354964 7.75601501 2.13354964 7.75601501 0 5 C-0.125 2.3125 -0.125 2.3125 0 0 Z " fill="#5A6178" transform="translate(186,388)"/>
<path d="M0 0 C0.99 0.33 1.98 0.66 3 1 C2.8125 3.375 2.8125 3.375 2 6 C-0.5625 7.3125 -0.5625 7.3125 -3 8 C-2.37240135 5.07120629 -1.41377341 2.63904371 0 0 Z " fill="#030E35" transform="translate(330,381)"/>
<path d="M0 0 C0.763125 0.20625 1.52625 0.4125 2.3125 0.625 C1.9825 1.945 1.6525 3.265 1.3125 4.625 C-1.0625 4.8125 -1.0625 4.8125 -3.6875 4.625 C-4.3475 3.635 -5.0075 2.645 -5.6875 1.625 C-2.6875 -0.375 -2.6875 -0.375 0 0 Z " fill="#021036" transform="translate(354.6875,379.375)"/>
<path d="M0 0 C1.07310858 3.27185553 0.89263102 5.42947592 0.0625 8.75 C-0.22947266 9.94882812 -0.22947266 9.94882812 -0.52734375 11.171875 C-0.68332031 11.77515625 -0.83929688 12.3784375 -1 13 C-1.33 13 -1.66 13 -2 13 C-2.33 9.04 -2.66 5.08 -3 1 C-2.01 0.67 -1.02 0.34 0 0 Z " fill="#4D546D" transform="translate(229,308)"/>
<path d="M0 0 C2.35953094 2.35953094 2.49141413 3.77895617 3 7 C2.01 7.33 1.02 7.66 0 8 C-1.66710346 9.49985609 -1.66710346 9.49985609 -3 11 C-2.69217504 9.35328588 -2.37860766 7.70764424 -2.0625 6.0625 C-1.88847656 5.14597656 -1.71445313 4.22945313 -1.53515625 3.28515625 C-1 1 -1 1 0 0 Z " fill="#1C2244" transform="translate(108,272)"/>
<path d="M0 0 C0.99 0.66 1.98 1.32 3 2 C3 2.66 3 3.32 3 4 C1.25 5.6875 1.25 5.6875 -1 7 C-3.25 6.6875 -3.25 6.6875 -5 6 C-3.35 4.02 -1.7 2.04 0 0 Z " fill="#1C2346" transform="translate(303,242)"/>
<path d="M0 0 C0.99 0 1.98 0 3 0 C3.6875 2.3125 3.6875 2.3125 4 5 C2.5625 6.8125 2.5625 6.8125 1 8 C-1 6 -1 6 -1.1875 3.4375 C-1 1 -1 1 0 0 Z " fill="#040F38" transform="translate(300,70)"/>
<path d="M0 0 C1.1446875 0.3403125 1.1446875 0.3403125 2.3125 0.6875 C2.3125 1.0175 2.3125 1.3475 2.3125 1.6875 C0.6625 1.6875 -0.9875 1.6875 -2.6875 1.6875 C-2.6875 2.6775 -2.6875 3.6675 -2.6875 4.6875 C-3.3475 4.6875 -4.0075 4.6875 -4.6875 4.6875 C-4.6875 6.3375 -4.6875 7.9875 -4.6875 9.6875 C-5.3475 9.3575 -6.0075 9.0275 -6.6875 8.6875 C-6.09018456 3.31166107 -6.09018456 3.31166107 -4.4375 0.75 C-2.6875 -0.3125 -2.6875 -0.3125 0 0 Z " fill="#2B2F49" transform="translate(252.6875,54.3125)"/>
<path d="M0 0 C5.61 0.66 11.22 1.32 17 2 C17 2.33 17 2.66 17 3 C11.06 3 5.12 3 -1 3 C-0.67 2.01 -0.34 1.02 0 0 Z " fill="#080F2F" transform="translate(426,325)"/>
<path d="M0 0 C0.33 0 0.66 0 1 0 C2.2375 7.15 2.2375 7.15 1 11 C1 11.99 1 12.98 1 14 C0.01 14.33 -0.98 14.66 -2 15 C-1.38487182 9.99109914 -0.7282448 4.99367864 0 0 Z " fill="#1F2543" transform="translate(20,297)"/>
<path d="M0 0 C0.99 0 1.98 0 3 0 C2.38487182 5.00890086 1.7282448 10.00632136 1 15 C0.67 15 0.34 15 0 15 C0 10.05 0 5.1 0 0 Z " fill="#424661" transform="translate(488,239)"/>
<path d="M0 0 C1.32 0 2.64 0 4 0 C4.33 0.66 4.66 1.32 5 2 C6.32 1.67 7.64 1.34 9 1 C9 1.99 9 2.98 9 4 C9.66 4 10.32 4 11 4 C10.67 4.99 10.34 5.98 10 7 C2.42857143 2.85714286 2.42857143 2.85714286 0 0 Z " fill="#232A46" transform="translate(171,192)"/>
<path d="M0 0 C0.66 1.32 1.32 2.64 2 4 C1.195625 4.12375 0.39125 4.2475 -0.4375 4.375 C-1.7059375 4.684375 -1.7059375 4.684375 -3 5 C-3.33 5.66 -3.66 6.32 -4 7 C-5.32 6.67 -6.64 6.34 -8 6 C-5.36 4.02 -2.72 2.04 0 0 Z M-2 5 C0 6 0 6 0 6 Z " fill="#282E4F" transform="translate(196,38)"/>
<path d="M0 0 C3.3 0.66 6.6 1.32 10 2 C9.34 2.66 8.68 3.32 8 4 C7.1646875 3.7834375 7.1646875 3.7834375 6.3125 3.5625 C3.05705445 2.77063487 0.26718383 3.43452588 -3 4 C-2.67 3.34 -2.34 2.68 -2 2 C-1.34 2 -0.68 2 0 2 C0 1.34 0 0.68 0 0 Z " fill="#030D31" transform="translate(42,391)"/>
<path d="M0 0 C0.33 0.66 0.66 1.32 1 2 C-0.093125 1.979375 -1.18625 1.95875 -2.3125 1.9375 C-5.94384191 1.81455548 -5.94384191 1.81455548 -9 3 C-9.99 2.01 -10.98 1.02 -12 0 C-7.74936599 -1.15926382 -4.29942266 -0.90949326 0 0 Z " fill="#3C4463" transform="translate(358,378)"/>
<path d="M0 0 C0.33 0.99 0.66 1.98 1 3 C2.32 2.67 3.64 2.34 5 2 C4.34 4.64 3.68 7.28 3 10 C0.3144406 7.3144406 -0.06049974 4.62378672 -1 1 C-0.67 0.67 -0.34 0.34 0 0 Z " fill="#38405D" transform="translate(247,377)"/>
<path d="M0 0 C0.66 0.33 1.32 0.66 2 1 C4.54615009 1.23172827 7.07396225 1.41894529 9.625 1.5625 C10.33140625 1.60568359 11.0378125 1.64886719 11.765625 1.69335938 C13.51018537 1.79944751 15.25506697 1.90022889 17 2 C17 2.33 17 2.66 17 3 C11.06 3.33 5.12 3.66 -1 4 C-0.67 2.68 -0.34 1.36 0 0 Z " fill="#171B38" transform="translate(207,325)"/>
<path d="M0 0 C1.98 0.99 1.98 0.99 4 2 C3.67 3.98 3.34 5.96 3 8 C2.01 8.33 1.02 8.66 0 9 C0 6 0 3 0 0 Z M-2 8 C-1.34 8.66 -0.68 9.32 0 10 C-0.66 10 -1.32 10 -2 10 C-2 9.34 -2 8.68 -2 8 Z " fill="#071133" transform="translate(43,268)"/>
<path d="M0 0 C4.75 0.75 4.75 0.75 7 3 C7.125 5.625 7.125 5.625 7 8 C6.01 8 5.02 8 4 8 C3.67 6.35 3.34 4.7 3 3 C2.01 3.495 2.01 3.495 1 4 C0.67 2.68 0.34 1.36 0 0 Z " fill="#3E445C" transform="translate(50,392)"/>
<path d="M0 0 C1.875 0.3125 1.875 0.3125 4 1 C6 4 6 4 6 7 C3.50638429 5.79618552 1.31856917 4.54571278 -1 3 C-0.67 2.01 -0.34 1.02 0 0 Z " fill="#2B3151" transform="translate(433,379)"/>
<path d="M0 0 C2.9555377 2.75170751 5.11563315 5.41970299 7 9 C7 9.66 7 10.32 7 11 C4.32423308 9.99382318 3.2214892 9.45785454 1.953125 6.8359375 C1.72109375 6.02382813 1.4890625 5.21171875 1.25 4.375 C1.00765625 3.55773437 0.7653125 2.74046875 0.515625 1.8984375 C0.34546875 1.27195312 0.1753125 0.64546875 0 0 Z " fill="#3E445F" transform="translate(90,312)"/>
<path d="M0 0 C0.66 0.33 1.32 0.66 2 1 C2 2.65 2 4.3 2 6 C0.02 6.33 -1.96 6.66 -4 7 C-1.125 1.125 -1.125 1.125 0 0 Z " fill="#040E37" transform="translate(68,279)"/>
<path d="M0 0 C0.99 0 1.98 0 3 0 C2.67 3.3 2.34 6.6 2 10 C1.67 8.68 1.34 7.36 1 6 C0.01 5.67 -0.98 5.34 -2 5 C-1.34 3.35 -0.68 1.7 0 0 Z " fill="#3C4465" transform="translate(454,268)"/>
<path d="M0 0 C0.99 0.33 1.98 0.66 3 1 C3 3.64 3 6.28 3 9 C1.68 8.34 0.36 7.68 -1 7 C-0.67 4.69 -0.34 2.38 0 0 Z " fill="#1C2644" transform="translate(436,261)"/>
<path d="M0 0 C2.31 0.33 4.62 0.66 7 1 C7.33 2.32 7.66 3.64 8 5 C5.69 4.67 3.38 4.34 1 4 C0.67 2.68 0.34 1.36 0 0 Z " fill="#030E33" transform="translate(153,250)"/>
<path d="M0 0 C0 3.10551666 -0.5393715 4.35261084 -2 7 C-2.66 7 -3.32 7 -4 7 C-4.33 7.66 -4.66 8.32 -5 9 C-5.33 7.68 -5.66 6.36 -6 5 C-5.34 5 -4.68 5 -4 5 C-4 4.01 -4 3.02 -4 2 C-2.68 1.34 -1.36 0.68 0 0 Z " fill="#313758" transform="translate(279,150)"/>
<path d="M0 0 C2.18975773 3.28463659 2.99806563 6.20696275 4 10 C2.68 9.67 1.36 9.34 0 9 C-1.125 2.25 -1.125 2.25 0 0 Z " fill="#3D445F" transform="translate(147,137)"/>
<path d="M0 0 C0.66 0 1.32 0 2 0 C3 3 3 3 2.22265625 4.82421875 C1.1484375 6.54947917 0.07421875 8.27473958 -1 10 C-1.66 10 -2.32 10 -3 10 C-2.67 8.02 -2.34 6.04 -2 4 C-1.34 4 -0.68 4 0 4 C0 2.68 0 1.36 0 0 Z " fill="#3B415B" transform="translate(298,63)"/>
<path d="M0 0 C1.65 0.33 3.3 0.66 5 1 C5.33 2.32 5.66 3.64 6 5 C4.125 5.625 4.125 5.625 2 6 C0 4 0 4 -1 2 C-0.67 1.34 -0.34 0.68 0 0 Z " fill="#030E33" transform="translate(223,40)"/>
<path d="M0 0 C1.2065625 0.0309375 1.2065625 0.0309375 2.4375 0.0625 C2.4375 0.7225 2.4375 1.3825 2.4375 2.0625 C3.0975 2.3925 3.7575 2.7225 4.4375 3.0625 C2.4575 3.7225 0.4775 4.3825 -1.5625 5.0625 C-2.2225 3.7425 -2.8825 2.4225 -3.5625 1.0625 C-2.5625 0.0625 -2.5625 0.0625 0 0 Z " fill="#030E38" transform="translate(159.5625,393.9375)"/>
<path d="M0 0 C1.37562854 1.28965176 2.70766393 2.62689293 4 4 C4 4.66 4 5.32 4 6 C2.35 6.33 0.7 6.66 -1 7 C-1.04254356 5.00045254 -1.04080783 2.99958364 -1 1 C-0.67 0.67 -0.34 0.34 0 0 Z " fill="#1D2747" transform="translate(181,380)"/>
<path d="M0 0 C1.32 0 2.64 0 4 0 C4 0.66 4 1.32 4 2 C4.99 1.67 5.98 1.34 7 1 C6.67 3.31 6.34 5.62 6 8 C2 3.25 2 3.25 2 1 C1.34 0.67 0.68 0.34 0 0 Z " fill="#292F53" transform="translate(175,261)"/>
<path d="M0 0 C3.96 1.32 7.92 2.64 12 4 C8 6 8 6 6 5.8125 C3.63341217 4.85107369 1.90421356 3.70019068 0 2 C0 1.34 0 0.68 0 0 Z " fill="#3E4661" transform="translate(205,198)"/>
<path d="M0 0 C1.65 1.65 3.3 3.3 5 5 C1.25 6.125 1.25 6.125 -1 5 C-1 4.34 -1 3.68 -1 3 C-1.66 3 -2.32 3 -3 3 C-3 2.34 -3 1.68 -3 1 C-2.01 0.67 -1.02 0.34 0 0 Z " fill="#252B4E" transform="translate(191,162)"/>
<path d="M0 0 C0.33 0.66 0.66 1.32 1 2 C1.66 2.33 2.32 2.66 3 3 C1.5 5.5 1.5 5.5 -1 8 C-3.80138565 8.45442324 -6.13800875 8.23849927 -9 8 C-9 7.67 -9 7.34 -9 7 C-5.535 6.505 -5.535 6.505 -2 6 C-1.34 4.02 -0.68 2.04 0 0 Z " fill="#494E6A" transform="translate(325,155)"/>
<path d="M0 0 C2.40072955 2.88087546 4.47291037 5.56404834 6 9 C4.68 9 3.36 9 2 9 C2 7.68 2 6.36 2 5 C1.01 4.67 0.02 4.34 -1 4 C-0.67 2.68 -0.34 1.36 0 0 Z " fill="#2F3753" transform="translate(154,153)"/>
<path d="M0 0 C0 0.99 0 1.98 0 3 C-2.97 3 -5.94 3 -9 3 C-9 2.34 -9 1.68 -9 1 C-6.04335481 -0.4783226 -3.25770263 -0.06032783 0 0 Z " fill="#353B53" transform="translate(180,117)"/>
<path d="M0 0 C0.99 0.33 1.98 0.66 3 1 C2.01 2.98 1.02 4.96 0 7 C-2.31 6.67 -4.62 6.34 -7 6 C-7 5.67 -7 5.34 -7 5 C-5.02 5 -3.04 5 -1 5 C-0.67 3.35 -0.34 1.7 0 0 Z " fill="#303751" transform="translate(231,401)"/>
<path d="M0 0 C0.33 0.99 0.66 1.98 1 3 C-0.90401138 4.90401138 -2.33425686 5.93520439 -5.046875 6.19921875 C-7.03233273 6.1886578 -9.0169914 6.09915043 -11 6 C-11 5.67 -11 5.34 -11 5 C-7.38026598 3.68373308 -4.90432869 3 -1 3 C-0.67 2.01 -0.34 1.02 0 0 Z " fill="#2F3654" transform="translate(165,394)"/>
<path d="M0 0 C0.99 0 1.98 0 3 0 C3.33 1.32 3.66 2.64 4 4 C3.34 4 2.68 4 2 4 C2 7.63 2 11.26 2 15 C1.67 15 1.34 15 1 15 C0.67 10.05 0.34 5.1 0 0 Z " fill="#0B122F" transform="translate(422,378)"/>
<path d="M0 0 C0.66 0.33 1.32 0.66 2 1 C1.67 4.3 1.34 7.6 1 11 C0.34 11 -0.32 11 -1 11 C-2.0257259 6.58937864 -2.03684712 4.07369424 0 0 Z " fill="#070F2F" transform="translate(125,280)"/>
<path d="M0 0 C0.33 0 0.66 0 1 0 C1 5.94 1 11.88 1 18 C0.67 18 0.34 18 0 18 C-0.8330186 11.64823316 -0.96435684 6.38886408 0 0 Z " fill="#9EA2B9" transform="translate(203,268)"/>
<path d="M0 0 C0.33 0.66 0.66 1.32 1 2 C-2.63 2.33 -6.26 2.66 -10 3 C-10.33 2.34 -10.66 1.68 -11 1 C-7.32589215 -0.17571451 -3.83070817 -0.07366746 0 0 Z " fill="#3D425E" transform="translate(328,123)"/>
<path d="M0 0 C0.33 0 0.66 0 1 0 C1 2.31 1 4.62 1 7 C-0.32 7.33 -1.64 7.66 -3 8 C-3.33 7.01 -3.66 6.02 -4 5 C-3.01 4.34 -2.02 3.68 -1 3 C-0.67 2.01 -0.34 1.02 0 0 Z " fill="#242B4D" transform="translate(291,399)"/>
<path d="M0 0 C0.66 0.99 1.32 1.98 2 3 C-0.06756277 5.7972908 -1.14440371 6.02692273 -4.6875 6.6875 C-5.780625 6.790625 -6.87375 6.89375 -8 7 C-7.13375 6.38125 -7.13375 6.38125 -6.25 5.75 C-3.97483401 3.98042645 -2.00004601 2.07147622 0 0 Z " fill="#313950" transform="translate(172,399)"/>
<path d="M0 0 C2.97 0.495 2.97 0.495 6 1 C6.33 2.32 6.66 3.64 7 5 C4.69 4.67 2.38 4.34 0 4 C0 2.68 0 1.36 0 0 Z " fill="#050D36" transform="translate(346,395)"/>
<path d="M0 0 C0.66 0 1.32 0 2 0 C2 3.3 2 6.6 2 10 C1.67 8.68 1.34 7.36 1 6 C0.01 5.67 -0.98 5.34 -2 5 C-1.34 3.35 -0.68 1.7 0 0 Z " fill="#2C3252" transform="translate(166,384)"/>
<path d="M0 0 C0.66 0.33 1.32 0.66 2 1 C2.36923077 7.52307692 2.36923077 7.52307692 0.5 9.9375 C0.005 10.288125 -0.49 10.63875 -1 11 C-1.14285714 3.57142857 -1.14285714 3.57142857 0 0 Z " fill="#2C324F" transform="translate(325,317)"/>
<path d="M0 0 C3.79303725 1.00193437 6.71536341 1.81024227 10 4 C9.67 4.66 9.34 5.32 9 6 C5.06326356 4.68775452 2.77280706 3.08089673 0 0 Z " fill="#2C344C" transform="translate(116,319)"/>
<path d="M0 0 C1.37562854 1.28965176 2.70766393 2.62689293 4 4 C4 4.66 4 5.32 4 6 C2.35 6 0.7 6 -1 6 C-1.33 5.34 -1.66 4.68 -2 4 C-1.0625 1.875 -1.0625 1.875 0 0 Z " fill="#1E2547" transform="translate(84,303)"/>
<path d="M0 0 C0.66 0 1.32 0 2 0 C1.67 3.63 1.34 7.26 1 11 C0.67 11 0.34 11 0 11 C-0.19406478 9.35492782 -0.38007935 7.70890406 -0.5625 6.0625 C-0.66691406 5.14597656 -0.77132813 4.22945313 -0.87890625 3.28515625 C-0.91886719 2.53105469 -0.95882813 1.77695312 -1 1 C-0.67 0.67 -0.34 0.34 0 0 Z " fill="#535971" transform="translate(457,257)"/>
<path d="M0 0 C0.99 0.33 1.98 0.66 3 1 C3.33 2.65 3.66 4.3 4 6 C3.01 6 2.02 6 1 6 C0.67 4.02 0.34 2.04 0 0 Z " fill="#272D4B" transform="translate(371,154)"/>
<path d="M0 0 C0.33 0 0.66 0 1 0 C1 4.62 1 9.24 1 14 C0.01 14.495 0.01 14.495 -1 15 C-1.5625 13.0625 -1.5625 13.0625 -2 11 C-1.67 10.67 -1.34 10.34 -1 10 C-0.76712992 8.31816052 -0.58735834 6.6287584 -0.4375 4.9375 C-0.35371094 4.01839844 -0.26992188 3.09929687 -0.18359375 2.15234375 C-0.12300781 1.44207031 -0.06242187 0.73179688 0 0 Z " fill="#3A425D" transform="translate(363,97)"/>
<path d="M0 0 C-0.66 1.32 -1.32 2.64 -2 4 C-2.66 4 -3.32 4 -4 4 C-4.33 3.34 -4.66 2.68 -5 2 C-7.02463255 1.34786708 -7.02463255 1.34786708 -9 1 C-5.64919071 -1.10976881 -3.77897651 -1.0497157 0 0 Z " fill="#1E2743" transform="translate(362,94)"/>
<path d="M0 0 C0.33 1.32 0.66 2.64 1 4 C-1.64 4.66 -4.28 5.32 -7 6 C-6.67 4.68 -6.34 3.36 -6 2 C-4.02 2 -2.04 2 0 2 C0 1.34 0 0.68 0 0 Z " fill="#313853" transform="translate(259,80)"/>
<path d="M0 0 C0.33 0 0.66 0 1 0 C1.32613618 4.67461851 0.70582788 7.16674383 -2 11 C-2.66 9.68 -3.32 8.36 -4 7 C-2.68 6.34 -1.36 5.68 0 5 C0 3.35 0 1.7 0 0 Z " fill="#585E75" transform="translate(363,386)"/>
<path d="M0 0 C0.66 0 1.32 0 2 0 C2.66 2.31 3.32 4.62 4 7 C3.01 7.33 2.02 7.66 1 8 C1 7.01 1 6.02 1 5 C0.34 4.67 -0.32 4.34 -1 4 C-0.67 2.68 -0.34 1.36 0 0 Z " fill="#4C536A" transform="translate(239,381)"/>
<path d="M0 0 C2.97 0 5.94 0 9 0 C6.01193893 1.49403054 3.10343799 2.79310745 0 4 C-0.33 3.34 -0.66 2.68 -1 2 C-0.67 1.34 -0.34 0.68 0 0 Z " fill="#293050" transform="translate(153,378)"/>
<path d="M0 0 C0.86625 0.3403125 0.86625 0.3403125 1.75 0.6875 C1.09 2.0075 0.43 3.3275 -0.25 4.6875 C-2.23 4.0275 -4.21 3.3675 -6.25 2.6875 C-2.80384615 -0.38942308 -2.80384615 -0.38942308 0 0 Z " fill="#343F5A" transform="translate(136.25,242.3125)"/>
<path d="M0 0 C2.0625 0.4375 2.0625 0.4375 4 1 C3.34 1.66 2.68 2.32 2 3 C1.28591666 4.98356483 0.61382258 6.98315437 0 9 C-0.66 7.68 -1.32 6.36 -2 5 C-1.34 5 -0.68 5 0 5 C-0.2784375 4.0409375 -0.2784375 4.0409375 -0.5625 3.0625 C-0.7790625 2.0415625 -0.7790625 2.0415625 -1 1 C-0.67 0.67 -0.34 0.34 0 0 Z " fill="#545D74" transform="translate(37,373)"/>
<path d="M0 0 C-1 3 -1 3 -4 5 C-4.99 5 -5.98 5 -7 5 C-7 4.01 -7 3.02 -7 2 C-2.25 0 -2.25 0 0 0 Z " fill="#3C445E" transform="translate(180,320)"/>
<path d="M0 0 C0.66 0.33 1.32 0.66 2 1 C1.67 1.99 1.34 2.98 1 4 C-2.3 4 -5.6 4 -9 4 C-9 3.67 -9 3.34 -9 3 C-6.69 3 -4.38 3 -2 3 C-2 2.34 -2 1.68 -2 1 C-1.34 0.67 -0.68 0.34 0 0 Z " fill="#878B97" transform="translate(263,316)"/>
<path d="M0 0 C0.99 0.33 1.98 0.66 3 1 C0.69 3.31 -1.62 5.62 -4 8 C-4.33 7.01 -4.66 6.02 -5 5 C-4.34 5 -3.68 5 -3 5 C-2.67 4.01 -2.34 3.02 -2 2 C-1.34 2 -0.68 2 0 2 C0 1.34 0 0.68 0 0 Z " fill="#404860" transform="translate(189,311)"/>
<path d="M0 0 C0.99 0 1.98 0 3 0 C2.67 1.98 2.34 3.96 2 6 C1.34 6 0.68 6 0 6 C-0.33 6.99 -0.66 7.98 -1 9 C-2.60031344 5.79937313 -1.03173691 3.27728194 0 0 Z " fill="#060F32" transform="translate(228,299)"/>
<path d="M0 0 C0.66 0.33 1.32 0.66 2 1 C1.01 3.97 0.02 6.94 -1 10 C-1.33 10 -1.66 10 -2 10 C-2.17942163 6.05272412 -2.09350689 3.4019487 0 0 Z " fill="#313954" transform="translate(199,293)"/>
<path d="M0 0 C1.98 0.66 3.96 1.32 6 2 C6 2.99 6 3.98 6 5 C4.68 5.33 3.36 5.66 2 6 C2.33 5.01 2.66 4.02 3 3 C2.34 3 1.68 3 1 3 C0.67 2.01 0.34 1.02 0 0 Z " fill="#383E5F" transform="translate(179,240)"/>
<path d="M0 0 C0.94875 0.350625 1.8975 0.70125 2.875 1.0625 C-0.125 3.0625 -0.125 3.0625 -2.8125 2.6875 C-3.575625 2.48125 -4.33875 2.275 -5.125 2.0625 C-5.125 1.4025 -5.125 0.7425 -5.125 0.0625 C-3.125 -0.9375 -3.125 -0.9375 0 0 Z " fill="#21274D" transform="translate(275.125,210.9375)"/>
<path d="M0 0 C0.66 0.33 1.32 0.66 2 1 C2 1.66 2 2.32 2 3 C2.66 3 3.32 3 4 3 C4.33 3.99 4.66 4.98 5 6 C2 6 2 6 -1 5 C-0.67 3.35 -0.34 1.7 0 0 Z " fill="#2E3551" transform="translate(185,142)"/>
<path d="M0 0 C0.66 1.32 1.32 2.64 2 4 C0.02 4.99 0.02 4.99 -2 6 C-2 7.65 -2 9.3 -2 11 C-2.33 11 -2.66 11 -3 11 C-3.36923077 4.6 -3.36923077 4.6 -1.5 1.5625 C-1.005 1.046875 -0.51 0.53125 0 0 Z " fill="#363D58" transform="translate(307,85)"/>
<path d="M0 0 C0.33 0.66 0.66 1.32 1 2 C2.65 1.67 4.3 1.34 6 1 C6.33 1.99 6.66 2.98 7 4 C4.69 4 2.38 4 0 4 C0 2.68 0 1.36 0 0 Z " fill="#040F2F" transform="translate(254,315)"/>
<path d="M0 0 C0.99 0.33 1.98 0.66 3 1 C1.02 1.99 1.02 1.99 -1 3 C-1 4.98 -1 6.96 -1 9 C-2.38111722 6.7252187 -3.05694702 5.49828639 -2.75 2.8125 C-2 1 -2 1 0 0 Z " fill="#52586F" transform="translate(41,303)"/>
<path d="M0 0 C0.33 0 0.66 0 1 0 C1.25 6.625 1.25 6.625 -1 10 C-2.15837626 5.94568308 -1.83691257 3.78187881 0 0 Z " fill="#4F5B70" transform="translate(315,279)"/>
<path d="M0 0 C1.125 3.75 1.125 3.75 0 6 C-0.66 6 -1.32 6 -2 6 C-2 6.66 -2 7.32 -2 8 C-2.99 7.67 -3.98 7.34 -5 7 C-4.67 6.34 -4.34 5.68 -4 5 C-3.34 5 -2.68 5 -2 5 C-1.34 3.35 -0.68 1.7 0 0 Z " fill="#323A52" transform="translate(274,278)"/>
<path d="M0 0 C2.97 0 5.94 0 9 0 C9 1.65 9 3.3 9 5 C8.01 4.34 7.02 3.68 6 3 C6 2.34 6 1.68 6 1 C4.02 1 2.04 1 0 1 C0 0.67 0 0.34 0 0 Z " fill="#6F7489" transform="translate(137,130)"/>
<path d="M0 0 C0 3.92896395 -1.00299863 7.19893228 -2 11 C-3.1875 9.375 -3.1875 9.375 -4 7 C-1.9 1.9 -1.9 1.9 0 0 Z " fill="#060F31" transform="translate(357,119)"/>
<path d="M0 0 C0.99 1.32 1.98 2.64 3 4 C2.67 4.66 2.34 5.32 2 6 C1.34 5.67 0.68 5.34 0 5 C0 5.66 0 6.32 0 7 C-0.66 7 -1.32 7 -2 7 C-1.125 2.25 -1.125 2.25 0 0 Z " fill="#363D56" transform="translate(171,66)"/>
<path d="M0 0 C2.475 0.495 2.475 0.495 5 1 C5 2.98 5 4.96 5 7 C4.34 7 3.68 7 3 7 C2.814375 5.824375 2.814375 5.824375 2.625 4.625 C2.20882007 1.85942178 2.20882007 1.85942178 0 0 Z " fill="#363A54" transform="translate(259,60)"/>
<path d="M0 0 C0.33 0.66 0.66 1.32 1 2 C-0.25 4.625 -0.25 4.625 -2 7 C-2.99 7 -3.98 7 -5 7 C-3.70700306 4.11562221 -2.34058637 2.12780579 0 0 Z " fill="#2C334E" transform="translate(187,45)"/>
<path d="M0 0 C2 2 2 2 2 5 C0.02 5.33 -1.96 5.66 -4 6 C-3.34 5.67 -2.68 5.34 -2 5 C-1.27840576 3.35636866 -0.60648579 1.68949614 0 0 Z " fill="#313651" transform="translate(132,399)"/>
<path d="M0 0 C0.99 0.495 0.99 0.495 2 1 C2 1.66 2 2.32 2 3 C2.66 3 3.32 3 4 3 C4.33 3.99 4.66 4.98 5 6 C4.34 7.32 3.68 8.64 3 10 C2.01 6.7 1.02 3.4 0 0 Z " fill="#676D84" transform="translate(250,388)"/>
<path d="M0 0 C4.75 0.75 4.75 0.75 7 3 C7 3.99 7 4.98 7 6 C6.34 6 5.68 6 5 6 C3.2856382 4.04072937 1.61594832 2.04119788 0 0 Z " fill="#404761" transform="translate(362,373)"/>
<path d="M0 0 C2 2 2 2 2 5 C3.32 5.33 4.64 5.66 6 6 C4.02 6.33 2.04 6.66 0 7 C0 4.69 0 2.38 0 0 Z " fill="#242740" transform="translate(287,322)"/>
<path d="M0 0 C0.33 0.99 0.66 1.98 1 3 C-0.65 4.32 -2.3 5.64 -4 7 C-4.66 6.34 -5.32 5.68 -6 5 C-4.02 3.35 -2.04 1.7 0 0 Z " fill="#29314B" transform="translate(75,252)"/>
<path d="M0 0 C3.3 0 6.6 0 10 0 C8.68 1.32 7.36 2.64 6 4 C5.67 3.01 5.34 2.02 5 1 C3.35 1 1.7 1 0 1 C0 0.67 0 0.34 0 0 Z " fill="#878893" transform="translate(296,152)"/>
<path d="M0 0 C-2.40820361 2.40820361 -3.65022937 2.68097423 -7 3 C-9.3125 2.0625 -9.3125 2.0625 -11 1 C-7.32589215 -0.17571451 -3.83070817 -0.07366746 0 0 Z " fill="#484D67" transform="translate(339,121)"/>
<path d="M0 0 C0.66 0 1.32 0 2 0 C2.33 0.99 2.66 1.98 3 3 C1.8125 4.5 1.8125 4.5 0 6 C-2.6875 6.1875 -2.6875 6.1875 -5 6 C-3 4 -3 4 0 2 C0 1.34 0 0.68 0 0 Z " fill="#2E3759" transform="translate(173,90)"/>
<path d="M0 0 C0.99 0 1.98 0 3 0 C2.67 1.65 2.34 3.3 2 5 C0.68 5 -0.64 5 -2 5 C-2 4.01 -2 3.02 -2 2 C-1.34 2 -0.68 2 0 2 C0 1.34 0 0.68 0 0 Z " fill="#1C2545" transform="translate(183,64)"/>
<path d="M0 0 C1.485 0.99 1.485 0.99 3 2 C2.6875 3.9375 2.6875 3.9375 2 6 C1.01 6.33 0.02 6.66 -1 7 C-0.67 4.69 -0.34 2.38 0 0 Z " fill="#3B4158" transform="translate(247,43)"/>
</svg>
